<svg xmlns="http://www.w3.org/2000/svg" viewBox="0 0 295 156" width="295" height="156">
	<style>
		tspan { white-space:pre }
		.shp0 { fill: #000000 } 
		.shp1 { fill: #57ed46 } 
	</style>
	<g id="Background">
		<path id="Path 0" class="shp0" d="M61.18 1.15C58.8 1.66 56.51 2.63 56.09 3.29C55.67 3.96 54.26 7.2 52.96 10.5C51.66 13.8 47.76 21.9 44.28 28.5L37.97 40.5C44.08 48.25 47.02 51.62 48.45 53C50.77 55.23 51.05 56.26 51.03 62.5C51.02 67.06 50.25 71.77 48.81 76C47.16 80.84 45.37 83.71 41.8 87.25L37 92C19.79 92 18.86 92.2 17.45 94.25C16.6 95.49 14.12 99.42 11.95 103C9.77 106.57 6.42 112.54 4.49 116.25C2.34 120.4 0.99 124.44 0.99 126.75C0.98 129.17 1.98 132.1 3.81 135C5.37 137.47 8.19 140.87 10.07 142.56C11.96 144.24 15.07 146.15 17 146.8C18.92 147.46 24.32 148.37 29 148.82C33.67 149.28 38.82 149.39 40.42 149.07C42.49 148.67 44.4 146.99 46.92 143.36C48.89 140.53 52.77 135.81 55.55 132.86C58.32 129.91 63.06 124.12 66.09 120C69.11 115.87 72.69 110.7 74.04 108.5C75.39 106.3 77.54 102.25 78.83 99.5C80.12 96.75 82.69 90.45 84.53 85.5C86.38 80.55 89.21 71.32 90.83 65C92.45 58.67 94.95 46.75 96.38 38.5C97.82 30.25 99 21.36 99 18.75C99 16.14 98.55 13.77 98 13.5C97.45 13.22 97.22 11.87 97.5 10.5C97.92 8.41 97.31 7.57 93.75 5.35C91.41 3.89 87.7 2.08 85.5 1.33C83.24 0.56 78.01 0.01 73.5 0.09C69.1 0.16 63.55 0.63 61.18 1.15Z" />
		<path id="Path 1" class="shp1" d="M63.25 6.09C60.88 6.75 59.68 7.88 58.82 10.25C58.17 12.04 54.81 19.12 51.35 26C47.89 32.87 45.04 39.06 45.03 39.75C45.01 40.44 47.59 43.75 50.75 47.1L56.5 53.21C55.92 68.33 55.02 74.66 54.05 77.5C53.12 80.25 50.92 84.64 49.17 87.25C47.43 89.86 45.1 92.56 44 93.25C42.89 93.94 41.99 95.29 42 96.25C42 97.21 41.44 98.19 40.75 98.41C40.06 98.64 38.82 98.42 38 97.93C37.17 97.43 33.12 97.03 29 97.03L21.5 97.02C14.52 108.97 11.09 115.15 9.37 118.47C6.84 123.35 6.37 125.17 6.94 128C7.33 129.92 8.14 132.4 8.73 133.5C9.33 134.6 10.87 136.49 12.16 137.69C13.45 138.9 16.07 140.55 18 141.35C19.92 142.16 25.1 143.13 29.5 143.52C33.9 143.91 37.84 144.4 38.25 144.61C38.66 144.83 40.44 143.09 42.21 140.75C43.97 138.41 48.39 133.12 52.03 129C55.67 124.87 61.02 118.35 63.91 114.5C66.8 110.65 70.89 103.9 73 99.5C75.1 95.1 78.01 88.35 79.46 84.5C80.91 80.65 83.43 72.55 85.07 66.5C86.7 60.45 89.37 47.74 91.02 38.25C93.34 24.81 93.77 20.39 92.95 18.25C92.37 16.74 92.03 14.37 92.2 13C92.45 10.89 91.71 10.09 87.5 7.91C83.39 5.78 81.07 5.3 74.5 5.24C70.1 5.21 65.04 5.59 63.25 6.09Z" />
		<path id="Path 2" fill-rule="evenodd" class="shp0" d="M282.81 107.18C283.86 107.38 284.88 109.09 285.5 111.72C286.45 115.73 286.69 115.95 290.5 116.22C293.74 116.45 294.5 116.88 294.5 118.5C294.5 120.04 293.67 120.62 287.32 121.5L288.6 127.5C289.3 130.8 289.9 134.06 289.94 134.75C289.97 135.44 289.21 136.23 288.25 136.5C287.29 136.78 285.92 136.44 285.22 135.75C284.52 135.06 283.75 133.37 283.52 132C283.29 130.62 282.86 127.59 282.55 125.25C282.1 121.79 281.59 120.95 279.76 120.75C278.52 120.61 277.4 119.72 277.26 118.75C277.1 117.7 277.8 116.8 279 116.5C280.61 116.1 280.88 115.46 280.36 113.25C280.01 111.74 280.04 109.68 280.42 108.68C280.81 107.67 281.88 107 282.81 107.18ZM205.05 113C206.12 113 207.19 113.79 207.41 114.75C207.64 115.71 208.09 118.19 208.41 120.25C208.87 123.17 209.39 123.91 210.75 123.57C211.71 123.34 214.41 122.89 216.75 122.57C219.18 122.24 221.21 122.43 221.5 123C221.77 123.55 223.46 123.99 225.25 123.98C227.04 123.97 229.03 124.54 229.69 125.23C230.64 126.25 231.2 126.15 232.51 124.75C233.48 123.71 235.64 122.99 237.82 122.97C240.5 122.96 242.18 123.66 244 125.56C246.06 127.71 246.54 129.31 246.75 134.59C246.94 139.56 246.66 141.11 245.5 141.5C244.67 141.77 243.3 141.44 242.46 140.75C241.45 139.93 240.94 137.94 241 135C241.06 132.09 240.53 129.97 239.5 129C238.22 127.79 237.69 127.74 236.71 128.78C235.81 129.73 235.76 131.34 236.5 135.06C237.05 137.82 237.27 140.54 237 141.11C236.72 141.68 235.61 142 234.53 141.82C233.27 141.62 232.01 140.01 231.03 137.36C230.19 135.08 228.6 132.27 227.5 131.13C226.4 129.98 225.16 129.25 224.75 129.52C224.34 129.78 224 132.02 224 134.5C224 137.87 223.56 139.16 222.25 139.65C221.12 140.07 220.03 139.63 219.19 138.4C218.34 137.18 218.08 134.98 219 128L214.75 128.61C212.41 128.95 210.27 129.43 210 129.68C209.72 129.92 210.01 132.91 210.63 136.31C211.55 141.3 211.51 142.79 210.43 144C209.25 145.33 208.93 145.33 207.55 144C206.7 143.17 205.55 139.8 205 136.5C204.29 132.19 203.37 130.03 199.5 127.15L201.5 125.02C203.14 123.27 203.36 122.17 202.75 118.94C202.34 116.77 202.25 114.55 202.55 114C202.85 113.45 203.98 113 205.05 113ZM168.34 116.19C170.14 116.45 170.5 117.17 170.5 120.5C170.5 123.91 170.17 124.54 168.25 124.75C166.64 124.93 165.83 124.36 165.4 122.75C165.08 121.51 165.12 119.46 165.5 118.19C165.98 116.53 166.8 115.96 168.34 116.19ZM79.15 117C80.17 117 81.74 117.79 82.64 118.75C83.54 119.71 85.56 123.09 87.14 126.25C88.71 129.41 90.56 132.15 91.25 132.33C91.99 132.53 92.4 133.96 92.25 135.83C92.11 137.57 92.45 139.22 93 139.5C93.55 139.77 94 140.9 94 142C94 143.1 93.32 144.22 92.5 144.5C91.67 144.78 89.88 143.78 88.47 142.25C87.07 140.74 85.95 139.16 85.97 138.75C85.98 138.34 83.41 138 80.25 138.01C74.92 138.01 74.37 138.23 72.75 141.01C71.67 142.86 70.43 143.81 69.5 143.5C68.67 143.22 68 142.1 68 141C68 139.9 69.36 134.84 71.01 129.75C72.67 124.66 74.76 119.71 75.66 118.75C76.56 117.79 78.13 117 79.15 117ZM77.66 126.75C76.75 129.09 76 131.22 76 131.5C76 131.77 77.01 132.15 78.25 132.33C79.49 132.51 81.25 132.4 82.16 132.08C83.65 131.56 83.59 131.06 81.56 127L79.32 122.5M258.83 121.98C260.3 121.97 262.07 122.54 262.77 123.23C263.46 123.93 264.01 125.4 263.99 126.5C263.96 127.6 263.11 129.85 262.09 131.5C261.07 133.15 258.72 135.5 253.5 138.97L256.25 138.98C257.76 138.99 260.1 138.44 261.45 137.75C263.19 136.87 264.07 135.4 264.45 132.75C264.82 130.23 265.98 128.18 268 126.5C269.65 125.12 272.12 124 273.5 124C275.07 124 276.76 125.03 278.03 126.75C279.15 128.26 280.05 130.51 280.03 131.75C280.02 132.99 280.9 135.24 282 136.75C283.62 138.96 283.76 139.75 282.75 140.79C282.06 141.51 280.71 142.07 279.75 142.04C278.79 142.02 277.32 140.99 276.49 139.75C275.66 138.51 274.99 136.49 274.99 135.25C275 134.01 274.77 132.32 274.5 131.5C274.22 130.67 273.32 130 272.5 130C271.55 130 270.44 131.93 269.47 135.25C268.34 139.13 267.16 140.96 264.97 142.25C263.25 143.26 260 143.99 257.25 143.98C254.64 143.98 252 143.64 251.4 143.23C250.79 142.83 249.78 141.49 249.15 140.25C248.33 138.64 248.28 136.58 249 133C249.68 129.58 250.97 127.05 253.08 125C254.92 123.2 257.22 121.99 258.83 121.98ZM186.07 123C189.39 123 190.48 123.58 193.1 126.75C194.8 128.81 197 132.52 197.98 135C198.96 137.47 199.47 140.1 199.13 140.82C198.78 141.55 197.65 142 196.61 141.82C195.57 141.65 194.4 140.82 194.01 140C193.63 139.17 192.23 136.3 190.91 133.61C189.58 130.91 187.92 128.44 187.2 128.11C186.49 127.77 185.14 128.32 184.2 129.31C183.27 130.31 182.27 132.78 181.99 134.81C181.58 137.7 180.99 138.55 179.24 138.75C177.86 138.9 176.75 138.33 176.36 137.25C176.01 136.29 176.2 133.92 176.8 132C177.4 130.07 178.84 127.26 180.01 125.75C181.69 123.58 182.95 123 186.07 123ZM127.02 124C130.86 124 134.9 124.45 136 125C137.1 125.55 138.4 127.01 138.89 128.25C139.77 130.49 139.78 130.49 141.14 127.68C141.89 126.11 143.61 124.6 145 124.28C146.37 123.95 149.52 124.23 152 124.9C154.47 125.57 157.51 126.76 158.75 127.56C159.99 128.35 161.56 130.15 162.25 131.56C163.32 133.75 163.21 134.63 161.5 137.6C160.4 139.52 158.04 141.74 156.25 142.54C154.46 143.34 151.65 144 150 144C148.35 144 145.54 143.41 143.75 142.68C141.66 141.83 140.23 140.41 139.75 138.68C139.03 136.12 138.88 136.06 136.25 137.41C134.74 138.19 131.32 139.42 123.79 141.5L124.15 146.98C124.46 151.82 124.27 152.49 122.5 152.79C121.4 152.97 120.17 152.76 119.76 152.31C119.36 151.87 118.63 146.55 118.14 140.5C117.42 131.7 117.52 128.95 118.64 126.75C119.97 124.15 120.41 124 127.02 124ZM122.83 132.67C122.95 134.36 123.61 135 125.25 135.02C126.49 135.03 128.96 134.58 130.75 134.02C132.54 133.46 134 132.32 134 131.5C134 130.67 133.32 129.77 132.5 129.5C131.67 129.22 129.5 129 127.67 129C125.83 129 123.96 129.3 123.5 129.67C123.04 130.03 122.74 131.38 122.83 132.67ZM144.8 134.7C145 137.95 145.08 138 149.8 138C152.44 138 155.15 137.44 155.82 136.75C156.49 136.06 157.03 134.71 157.02 133.75C157.01 132.54 155.7 131.66 152.75 130.9C150.41 130.29 148.21 129.64 147.87 129.44C147.52 129.24 146.64 129.6 145.92 130.24C145.19 130.88 144.69 132.88 144.8 134.7ZM107 125.51C110.02 125.84 113.08 126.65 113.8 127.31C114.51 127.96 115.34 130.07 115.64 132C116.08 134.8 115.72 135.96 113.85 137.78C112.56 139.04 109.7 140.32 103.5 141.2L104 147.69C104.27 151.25 104.27 154.62 104 155.16C103.72 155.7 102.6 156 101.5 155.81C99.77 155.52 99.34 154.21 98.29 145.99C97.63 140.77 96.84 135.94 96.54 135.25C96.24 134.56 96.22 133.32 96.5 132.5C96.77 131.67 97.79 131.02 98.75 131.04C100.32 131.08 100.34 130.92 99 129.44C97.66 127.96 97.71 127.63 99.5 126.35C100.95 125.31 103.02 125.08 107 125.51ZM102.37 135.67C102.44 135.77 104.07 135.52 106 135.13C108.18 134.68 109.59 133.77 109.75 132.71C109.95 131.31 109.17 131 105.41 131C101.1 131 100.86 131.14 101.53 133.25C101.93 134.49 102.31 135.58 102.37 135.67ZM168.3 128.19C170.12 128.46 170.61 129.64 171.78 136.5C172.77 142.31 172.84 144.77 172.04 145.5C171.31 146.17 170.37 146.13 169.22 145.39C168.23 144.74 166.98 141.78 166.27 138.39C165.6 135.15 165.3 131.46 165.61 130.19C166.02 128.52 166.78 127.96 168.3 128.19Z" />
	</g>
</svg>