<svg xmlns="http://www.w3.org/2000/svg" viewBox="0 0 303 145" width="303" height="145">
	<style>
		tspan { white-space:pre }
		.shp0 { fill: #010101 } 
		.shp1 { fill: #fbfefb } 
		.shp2 { fill: #fa3043 } 
		.shp3 { fill: #2fa7fa } 
		.shp4 { fill: #b95992 } 
		.shp5 { fill: #faf62c } 
	</style>
	<g id="Background">
		<path id="Path 0" fill-rule="evenodd" class="shp0" d="M29 0.04C35.31 0.04 35.82 0.24 46.5 6.96C52.55 10.77 58.74 14.36 60.25 14.94C61.76 15.52 65.25 16 68 16C71.98 16 74.37 15.21 79.75 12.12C83.46 9.98 88.97 7.67 92 6.99C95.02 6.31 100.06 5.92 103.19 6.13C106.32 6.33 109.47 7.05 110.19 7.71C111.05 8.52 111.2 9.53 110.62 10.71C110.14 11.7 109.82 14.52 109.9 17C109.99 19.47 109.19 26 108.13 31.5C107.06 37 106.26 41.62 106.35 41.78C106.43 41.93 109.87 40.75 114 39.16C118.12 37.57 123.07 35.79 125 35.21C126.92 34.63 134.35 32.3 141.5 30.03C148.65 27.77 155.4 25.5 156.5 24.99C157.6 24.48 161.65 22.9 165.5 21.48C169.35 20.06 173.51 18.25 174.75 17.45C175.99 16.65 177.79 16.12 178.75 16.26C180.22 16.48 180.67 18.31 181.58 27.51C182.34 35.35 182.34 38.87 181.58 39.79C180.98 40.51 179.71 41.07 178.75 41.04C177.79 41.02 174.52 42.12 171.5 43.5C167.5 45.32 166 46.55 166 48C166 49.1 165.44 50.05 164.75 50.12C164.06 50.18 162.6 50.15 161.5 50.05C160.4 49.95 156.8 51.09 153.5 52.58C150.2 54.08 142.32 56.59 136 58.17C129.67 59.75 119.02 62.95 100.16 69.5L99.01 75.5C98.37 78.8 96.1 88.7 93.97 97.5C91.83 106.3 88.92 116.87 87.5 121C86.07 125.12 84.59 129.82 84.2 131.42C83.69 133.55 82.68 134.57 80.5 135.17C78.78 135.64 76.43 135.59 75 135.04C73.62 134.51 69.57 133.35 66 132.45C62.42 131.56 56.46 129.51 52.75 127.91C48.28 125.98 44.31 125 41 125C37.48 125 34.46 125.81 30.79 127.75C26.53 130 24.28 130.5 18.54 130.5C12.87 130.5 10.87 130.06 8.25 128.25C6.46 127.01 4.66 126.22 4.25 126.49C3.84 126.76 2.92 126.43 2.21 125.74C1.49 125.06 0.93 123.15 0.95 121.5C0.97 119.85 1.42 116.02 1.95 113C2.49 109.97 3.6 102.77 4.43 97C5.25 91.22 6.17 83.8 6.46 80.5C6.74 77.2 7.23 71.35 7.54 67.5C7.85 63.65 8.76 55.32 9.55 49C10.34 42.67 12.56 30.97 14.47 23C16.77 13.42 17.61 8.16 16.96 7.5C16.41 6.95 15.9 5.98 15.82 5.35C15.74 4.71 17.21 3.26 19.08 2.12C21.62 0.57 24.17 0.03 29 0.04ZM104.69 20C104.94 19.17 104.94 17.6 104.69 16.5C104.44 15.4 104.23 16.07 104.23 18C104.23 19.92 104.44 20.82 104.69 20Z" />
		<path id="Path 1" class="shp1" d="M97.25 4L95.25 6C102.03 6 104 5.77 104 5.5C104 5.22 103.32 4.32 102.5 3.5C101.67 2.67 100.61 2 100.12 2C99.64 2 98.35 2.9 97.25 4ZM23.56 6.25C23.35 6.94 22.92 9.07 22.61 11C22.3 12.92 21.13 18.32 20 23C18.88 27.67 17.3 34.65 16.5 38.5C15.7 42.35 14.14 55.4 13.04 67.5C11.93 79.6 10.36 93.55 9.56 98.5C8.76 103.45 7.82 109.97 7.48 113C6.89 118.16 7.04 118.7 9.93 121.75C12.08 124.03 13.97 125.03 16.25 125.12C18.04 125.18 20.4 125.16 21.5 125.07C22.6 124.98 24.85 124.4 26.5 123.79C28.15 123.17 30.34 121.96 31.36 121.09C32.69 119.95 35.26 119.51 40.36 119.52C45.77 119.54 48.53 120.08 51.75 121.77C54.09 123 60.61 125.34 66.25 126.98C71.89 128.63 76.84 129.98 77.25 129.98C77.66 129.99 78.71 128.54 79.59 126.75C80.46 124.96 81.58 122.49 82.09 121.25C82.87 119.33 82.6 118.84 80.25 117.91C78.74 117.32 71.87 115.97 65 114.91C58.12 113.85 46.42 112.73 39 112.42C31.57 112.1 24.94 111.65 24.25 111.42C23.4 111.13 23 112.2 22.98 114.75C22.98 116.81 22.64 119.1 22.23 119.82C21.83 120.55 20.6 120.99 19.5 120.79C18.09 120.54 17.54 119.71 17.63 117.97C17.7 116.61 18.06 111.45 18.43 106.5C18.8 101.55 20.18 91.65 21.5 84.5C22.82 77.35 24.14 69.47 24.43 67C24.72 64.52 25.21 57.77 25.52 52C25.83 46.22 26.95 36.32 28.01 30C29.06 23.67 30.51 16.7 31.22 14.5C31.96 12.19 33.14 10.5 34 10.5C35.2 10.5 35.44 11.72 35.23 16.5L34.95 22.5C56.3 23.68 71.27 25.39 82 27.06C92.72 28.72 101.84 30.3 102.25 30.55C102.66 30.8 103.21 29.99 103.46 28.75C103.71 27.51 104.05 23.2 104.21 19.16L104.5 11.82C90.34 12.46 88.67 12.96 82.97 16.36C79.41 18.48 74.16 20.73 71.3 21.36C66.81 22.34 65.38 22.24 60.8 20.59C57.89 19.53 50.55 15.59 44.5 11.83C34.91 5.87 32.89 5 28.73 5C25.78 5 23.8 5.48 23.56 6.25Z" />
		<path id="Path 2" class="shp2" d="M32.16 11.75C31.67 12.71 30.77 15.75 30.16 18.5C29.55 21.25 28.6 26.2 28.05 29.5C27.51 32.8 26.83 37.75 26.54 40.5C26.26 43.25 25.79 49.55 25.51 54.5C25.22 59.45 24.73 65.52 24.42 68C24.11 70.47 22.79 78.12 21.49 85C20.18 91.87 18.85 101.32 18.53 106C18.21 110.67 17.74 115.74 17.48 117.25C17.15 119.12 17.48 120.16 18.5 120.5C19.32 120.77 20.56 120.59 21.25 120.1C22.01 119.55 22.82 115.13 23.31 108.85C23.75 103.16 25.17 92.87 26.46 86C27.75 79.12 29.08 70.35 29.4 66.5C29.73 62.65 30.46 53.87 31.02 47C31.58 40.12 32.26 33.26 32.52 31.75C32.78 30.24 32.55 28.32 32 27.5C31.45 26.67 31.22 25.32 31.5 24.5C31.77 23.67 32.67 23 33.5 23C34.59 23 35.14 21.5 35.5 17.5C35.77 14.47 35.77 11.55 35.5 11C35.22 10.45 34.56 10 34.03 10C33.49 10 32.65 10.79 32.16 11.75Z" />
		<path id="Path 3" class="shp3" d="M32.25 24.35C31.46 25.39 31.34 26.46 31.91 27.25C32.54 28.11 36.8 28.58 45.66 28.75C52.74 28.89 66.35 30.14 76 31.54C85.62 32.93 95.3 34.54 97.5 35.1C100.6 35.89 101.67 35.82 102.23 34.81C102.64 34.09 102.98 32.94 102.98 32.25C102.99 31.56 102.66 30.8 102.25 30.55C101.84 30.3 92.72 28.72 82 27.05C71.27 25.37 55.97 23.71 48 23.35C35.22 22.78 33.35 22.9 32.25 24.35Z" />
		<path id="Path 4" class="shp4" d="M167.6 26.45C161 29.05 159.94 29.79 160.39 31.5C160.67 32.6 161.6 35.19 162.45 37.25L164 41C169.81 38.49 172.73 37.25 174.22 36.63C176.87 35.53 176.93 35.33 176.33 29.5C176 26.2 175.63 23.48 175.52 23.45C175.42 23.42 171.85 24.77 167.6 26.45Z" />
		<path id="Path 5" class="shp1" d="M37 28.77C33.97 29 33.4 29.47 32.73 32.27C32.31 34.05 31.69 39.1 31.35 43.5L30.74 51.5C71.63 51.09 84.17 50.67 85 50.29C85.82 49.92 86.95 49.55 87.5 49.47C88.05 49.38 90.64 48.34 93.25 47.16C95.86 45.97 98.45 45 99 45C99.55 45 100.27 43.76 100.59 42.25C100.92 40.74 101.38 38.82 101.61 38C101.92 36.94 100.73 36.14 97.52 35.25C95.03 34.56 92.32 34 91.5 34C90.43 34 90.72 34.72 92.5 36.5C93.88 37.87 95.02 39.34 95.04 39.75C95.07 40.16 94.51 41.06 93.79 41.75C92.75 42.76 91.96 42.62 89.75 41C88.24 39.9 86.21 39.21 85.25 39.46C84.29 39.71 82.04 41.28 80.25 42.96C77.55 45.49 76.45 45.9 73.75 45.39C71.96 45.06 70.05 44.38 69.5 43.88C68.95 43.38 67.6 42.97 66.5 42.97C65.4 42.97 62.92 44.11 61 45.5C59.07 46.89 56.6 48.04 55.5 48.04C54.4 48.05 51.59 46.69 49.25 45.03C46.91 43.36 44.55 41.1 44 40C43.34 38.68 42.07 38.04 40.25 38.11C38.74 38.16 36.94 38.16 36.25 38.11C35.56 38.05 35 37.1 35 36C35 34.9 35.9 33.55 37 33C38.1 32.45 40.01 32.02 41.25 32.04C42.56 32.06 45.37 33.98 48 36.65C50.47 39.16 53.17 41.6 54 42.07C55.02 42.65 56.63 42.13 59 40.45C61.24 38.86 63.84 37.97 66.25 37.98C68.31 37.99 70.9 38.56 72 39.25C73.37 40.1 74.44 40.18 75.36 39.5C76.11 38.95 78.02 37.61 79.61 36.52C81.2 35.43 84.07 34.28 86 33.97C88.51 33.56 84.81 32.78 73 31.22C63.92 30.01 52.9 28.91 48.5 28.76C44.1 28.62 38.92 28.62 37 28.77Z" />
		<path id="Path 6" class="shp5" d="M152.89 32.01C152.13 32.44 145.65 34.5 138.5 36.58C131.35 38.66 121 42.07 115.5 44.15L105.5 47.94C102.66 59.22 101.99 62.6 102.17 62.73C102.35 62.86 107.9 61.17 114.5 58.98C121.1 56.79 129.87 54.27 134 53.39C138.12 52.5 145.44 50.14 150.25 48.14C155.06 46.14 158.97 44.05 158.95 43.5C158.92 42.95 157.86 39.97 156.59 36.87C154.88 32.69 153.93 31.44 152.89 32.01Z" />
		<path id="Path 7" class="shp0" d="M36.58 33.08C35.52 33.64 34.74 34.98 34.83 36.05C34.92 37.12 35.56 38.05 36.25 38.11C36.94 38.16 38.74 38.16 40.25 38.11C42.21 38.03 43.53 38.79 44.84 40.75C45.86 42.26 48.22 44.5 50.09 45.72C51.97 46.94 54.4 47.96 55.5 47.99C56.6 48.01 59.07 46.89 61 45.5C62.92 44.11 65.4 42.97 66.5 42.97C67.6 42.97 68.95 43.44 69.5 44.03C70.05 44.61 72.18 45.18 74.24 45.29C77.2 45.46 78.51 44.92 80.49 42.75C81.87 41.24 84.01 39.73 85.24 39.41C86.66 39.04 88.03 39.42 88.99 40.46C89.82 41.36 91.36 41.97 92.42 41.8C93.47 41.64 94.48 40.94 94.67 40.25C94.85 39.56 93.88 37.87 92.5 36.5C90.86 34.86 88.89 34 86.75 34C84.96 34.01 82.15 34.9 80.5 35.99C78.85 37.08 76.71 38.54 75.75 39.24C74.35 40.25 73.61 40.25 72 39.25C70.9 38.56 68.31 37.99 66.25 37.98C63.84 37.97 61.24 38.86 59 40.45C56.38 42.31 55.06 42.69 53.75 41.96C52.79 41.43 50.09 38.99 47.75 36.53C44.92 33.55 42.66 32.05 41 32.06C39.62 32.06 37.64 32.52 36.58 33.08Z" />
		<path id="Path 8" class="shp3" d="M31.48 52.5C31.21 53.32 31.22 54.45 31.5 55C31.81 55.62 40.94 56.01 55.75 56.03L79.5 56.05L84.5 50.95C35.76 51 31.88 51.22 31.48 52.5Z" />
		<path id="Path 9" class="shp5" d="M94.75 51.62C93.1 51.98 93.09 52.27 94.66 56.75C96.02 60.66 96.44 61.15 97.03 59.5C97.42 58.4 97.94 56.04 98.19 54.25C98.46 52.29 98.22 51.05 97.57 51.12C96.98 51.18 95.71 51.4 94.75 51.62Z" />
		<path id="Path 10" class="shp1" d="M29.53 65C29.15 70.22 27.75 80.12 26.42 87C25.1 93.87 24.01 101.07 24 103L23.99 106.5C47.64 107.6 60.35 108.83 67.5 109.95C74.65 111.06 81.4 112.24 82.5 112.56C84.31 113.1 84.8 112.04 87.65 101.33C89.38 94.82 91.07 88.49 91.4 87.25C91.86 85.54 91.64 85.12 90.5 85.5C89.67 85.77 88.44 85.61 87.75 85.13C87.06 84.65 83.57 83.91 80 83.49C76.42 83.07 63.82 82.45 52 82.11C31.37 81.52 30.5 81.42 30.5 79.5C30.5 77.6 31.27 77.49 46.5 77.2C55.3 77.04 68.57 77.39 76 77.98C85.13 78.7 89.99 79.51 91 80.48C92.32 81.74 92.62 81.26 93.5 76.44C94.05 73.42 94.18 70.63 93.79 70.23C93.41 69.83 91.38 69.66 89.29 69.85C85.97 70.15 85.53 70.49 85.75 72.6C85.91 74.16 85.39 75.19 84.25 75.54C83.29 75.84 79.8 75.6 76.5 75C73.2 74.41 68.83 72.92 66.78 71.71L63.06 69.5C59.38 74.49 58.21 75.01 54.75 75.03C52 75.06 49.53 74.35 47.75 73.03C46.24 71.92 44.21 70.98 43.25 70.96C42.29 70.93 40.82 71.64 40 72.53C39.17 73.42 37.6 74 36.5 73.82C35.4 73.64 34.36 72.6 34.2 71.5C33.98 70.03 35.04 68.86 38.2 67.11C41.91 65.05 42.98 64.87 46 65.79C47.92 66.38 50.17 67.58 51 68.47C51.82 69.36 53.17 70.08 54 70.07C54.82 70.05 56.85 68.67 58.5 67C60.15 65.33 62.06 63.97 62.75 63.98C63.44 63.99 66.02 65.13 68.5 66.5C72.83 68.91 73 68.93 73 67C73 65.9 74.35 63.2 76 61C77.65 58.8 78.89 56.8 78.75 56.56C78.61 56.32 67.64 55.98 54.37 55.81L30.24 55.5" />
		<path id="Path 11" class="shp4" d="M84.65 60.46C83.01 62.98 83.02 63 86 63C88.49 63 88.96 62.63 88.75 60.83C88.61 59.63 88.01 58.49 87.4 58.29C86.8 58.09 85.56 59.07 84.65 60.46Z" />
		<path id="Path 12" class="shp3" d="M30.48 78.5C30.21 79.32 30.22 80.45 30.5 81C30.8 81.6 37.25 82 46.75 82C55.41 82.01 67.67 82.47 74 83.03C80.32 83.6 86.56 84.61 87.85 85.28C89.87 86.33 90.39 86.22 91.61 84.5C92.85 82.74 92.81 82.29 91.26 80.77C89.93 79.45 86.57 78.79 77.5 78.03C70.9 77.48 57.73 77.02 48.23 77.02C33.74 77 30.87 77.24 30.48 78.5Z" />
		<path id="Path 13" class="shp0" d="M41.65 92C38.42 94.78 36.31 95.87 34.75 95.58C33.51 95.35 31.49 94.9 30.25 94.58C28.67 94.17 27.81 94.52 27.34 95.75C26.9 96.94 27.46 98.08 29.09 99.29C30.56 100.38 33.17 101.07 35.75 101.04C39.29 101.01 40.71 100.34 44.25 97.03C46.59 94.84 49.06 93.04 49.75 93.03C50.44 93.01 51.79 94.64 52.75 96.65C53.71 98.66 55.4 100.92 56.5 101.66C57.6 102.41 59.74 103.01 61.25 103.01C62.76 103 64.22 102.55 64.5 102C64.77 101.45 66.35 101 68 101C69.65 101 72.1 101.56 73.45 102.25C75.41 103.25 76.21 103.25 77.45 102.25C78.3 101.56 78.79 100.44 78.54 99.75C78.28 99.06 76.82 97.97 75.29 97.31C73.75 96.66 71.15 95.87 69.5 95.56C67.68 95.21 65.32 95.6 63.5 96.56C60.61 98.07 60.42 98.04 58.5 95.64C57.4 94.27 55.71 91.99 54.75 90.57C53.46 88.67 52.13 88 49.65 88C47.18 88 45.07 89.05 41.65 92ZM284.55 106.75C284.22 107.71 284.25 110.52 284.62 113C285.22 116.94 285.04 117.65 283.15 118.75C281.97 119.44 281 120.9 281 122C281 123.33 281.67 124 283 124C284.83 124 285 124.67 285 132C285 138.89 285.31 140.35 287.25 142.5C288.9 144.33 289.9 144.74 291 144.05C292.26 143.25 292.3 142.58 291.26 139.8C290.58 137.99 290.01 133.35 290 129.5L289.98 122.5C296.58 120.7 299.58 119.35 300.91 118.34C302.27 117.29 303.03 115.96 302.66 115.25C302.3 114.56 300.99 114.02 299.75 114.04C298.51 114.05 296.38 114.71 295 115.5C293.62 116.29 291.94 116.95 291.25 116.96C290.45 116.99 290 115.55 290 113C290 110.8 289.55 108.1 289 107C288.45 105.9 287.36 105 286.58 105C285.81 105 284.89 105.79 284.55 106.75Z" />
		<path id="Path 14" class="shp3" d="M23.38 108.38C22.85 109.41 22.89 110.4 23.5 110.91C24.05 111.38 30.8 112.03 38.5 112.37C46.2 112.7 58.12 113.85 65 114.9C71.87 115.96 78.74 117.32 80.25 117.91C81.76 118.51 83.01 118.66 83.01 118.25C83.02 117.84 83.16 116.55 83.32 115.39C83.48 114.22 82.91 112.96 82.05 112.58C81.2 112.19 74.65 110.99 67.5 109.9C60.35 108.81 47.7 107.64 39.38 107.31C25.82 106.76 24.18 106.87 23.38 108.38Z" />
		<path id="Path 15" fill-rule="evenodd" class="shp0" d="M120.35 107C121.26 107 122.3 107.79 122.66 108.75C123.11 109.94 122.5 111.14 120.76 112.5C119.36 113.6 117.27 116.07 116.11 118C114.95 119.92 114.01 122.51 114 123.75C114 124.99 114.67 126.22 115.5 126.5C116.32 126.77 119.36 126.99 122.25 126.97C125.85 126.96 128.05 126.41 129.25 125.22C130.32 124.17 131.58 123.79 132.5 124.25C133.32 124.66 134.01 125.56 134.03 126.25C134.04 126.94 132.88 128.62 131.44 130C129.18 132.17 127.93 132.5 121.99 132.5C116.61 132.5 114.55 132.05 112.33 130.4C110.61 129.13 109.37 127.16 109.16 125.4C108.98 123.81 109.29 120.92 109.86 119C110.43 117.07 112.66 113.59 114.8 111.25C116.95 108.91 119.45 107 120.35 107ZM148 112.54C148.82 112.71 150.51 112.88 151.75 112.92C152.99 112.97 154.67 113.67 155.5 114.5C156.32 115.32 157 117.69 157 119.75C156.99 121.81 156.09 124.96 155 126.75C153.9 128.54 151.54 130.61 149.77 131.35C147.59 132.26 145.22 132.45 142.52 131.93C140.19 131.48 137.72 130.17 136.65 128.83C135.32 127.16 134.97 125.59 135.4 123.25C135.73 121.46 136.77 118.86 137.72 117.46C138.67 116.06 141.03 114.32 142.97 113.58C144.91 112.84 147.17 112.37 148 112.54ZM140.87 124.06C140.99 126.68 141.36 127 144.25 127.03C146.34 127.04 148.3 126.24 149.73 124.78C150.95 123.52 151.97 121.49 151.98 120.25C152 118.38 151.46 118 148.75 117.99C146.96 117.99 144.43 118.69 143.12 119.55C141.42 120.66 140.77 121.97 140.87 124.06ZM243.5 113.61C245.15 113.89 246.88 114.42 247.34 114.81C247.81 115.19 247.88 116.85 247.5 118.5C247.11 120.15 245.05 123.19 242.9 125.25C239.56 128.47 238.43 128.96 235 128.75C231.45 128.53 231 128.75 231 130.75C231 131.99 231.34 133.18 231.75 133.4C232.16 133.62 234.07 134.06 236 134.37C238.17 134.72 240.64 134.37 242.5 133.44C245.15 132.12 245.68 132.11 247 133.42C248.33 134.74 248.33 135.09 247 136.58C246.17 137.51 244.37 138.68 243 139.19C241.62 139.69 238.02 139.78 235 139.37C231.79 138.94 228.77 137.88 227.75 136.82C226.68 135.7 226 133.45 226 131C226 128.8 226.39 125.99 226.87 124.75C227.36 123.51 229.27 120.98 231.12 119.13C232.98 117.28 235.85 115.17 237.5 114.44C239.15 113.71 241.85 113.34 243.5 113.61ZM235.25 124.03C236.21 124.01 238.24 122.89 239.75 121.53C242.3 119.24 242.35 119.06 240.42 119.03C239.27 119.01 237.25 120.14 235.92 121.53C233.87 123.67 233.77 124.05 235.25 124.03ZM183.83 113.97C185.42 113.96 187.51 115 189 116.55C191.22 118.87 191.5 120.01 191.5 126.83C191.5 133.83 191.33 134.5 189.5 134.5C187.75 134.5 187.44 133.67 187 127.81C186.72 124.13 185.96 120.53 185.3 119.81C184.31 118.74 183.64 118.81 181.55 120.25C179.34 121.77 179 122.73 179 127.5C179 130.52 178.77 133.67 178.5 134.5C178.22 135.32 177.32 136 176.5 136C175.67 136 174.55 135.1 174 134C173.45 132.9 173 131.1 173 130C173 128.9 172.21 126.42 171.25 124.48C170.29 122.54 168.94 120.97 168.25 120.98C167.56 120.99 166.79 122.01 166.53 123.25C166.27 124.49 165.93 126.62 165.78 128C165.59 129.74 164.89 130.5 163.5 130.5C161.84 130.5 161.45 129.73 161.19 126C160.96 122.66 161.41 120.79 162.94 118.75C164.46 116.72 165.85 116.01 168.25 116.03C170.04 116.04 172.29 116.71 173.25 117.53C174.82 118.85 175.32 118.74 178.08 116.5C179.78 115.12 182.37 113.99 183.83 113.97ZM218.13 115.88C219.4 116.28 220.48 117.94 221.13 120.5C221.69 122.7 222 127.87 221.82 132C221.53 138.73 221.29 139.5 219.5 139.5C217.68 139.5 217.47 138.73 217.2 131C217.04 126.32 216.59 122.16 216.2 121.74C215.82 121.32 214.37 122.14 213 123.58C211 125.66 210.45 127.35 210.25 132.09C210.02 137.47 209.8 138 207.75 138.02C205.85 138.03 205.3 137.21 204.26 132.77C203.58 129.87 202.35 126.6 201.54 125.5C200.17 123.65 200.06 123.88 200.03 128.75C200.01 132.54 199.56 134.21 198.41 134.75C197.42 135.22 196.49 134.94 195.93 134C195.43 133.17 195.02 130.02 195.01 127C194.99 123.72 195.59 120.59 196.49 119.25C197.38 117.92 199.02 117 200.5 117C202.23 117 203.54 117.93 206.5 123.08L208.41 120.46C209.46 119.02 211.63 117.26 213.23 116.55C214.83 115.84 217.04 115.54 218.13 115.88ZM261.75 117.06C261.89 117.03 263.46 117.59 265.25 118.32C267.57 119.26 269.19 121.05 270.92 124.57C272.3 127.4 273.37 131.42 273.42 134C273.49 137.84 273.21 138.5 271.52 138.5C269.95 138.5 269.29 137.39 268.28 133C267.59 129.97 266.34 126.49 265.51 125.25C264.68 124.01 263.1 123 262 123C260.9 123 259.55 123.9 259 125C258.45 126.1 258 128.8 258 131C258 133.2 257.55 135.22 257 135.5C256.45 135.77 255.3 135.44 254.46 134.75C253.47 133.96 252.91 131.86 252.92 129C252.93 126.03 253.64 123.54 255.01 121.67C256.15 120.11 258.08 118.45 259.29 117.98C260.51 117.51 261.61 117.1 261.75 117.06Z" />
	</g>
</svg>