<svg xmlns="http://www.w3.org/2000/svg" viewBox="0 0 360 190" width="360" height="190">
	<style>
		tspan { white-space:pre }
		.shp0 { fill: #000000 } 
		.shp1 { fill: #147c1a } 
		.shp2 { fill: #e2b979 } 
	</style>
	<g id="Background">
		<g id="Layer 2">
			<path id="Path 0" class="shp0" d="M79 29.99C77.08 31.08 72.8 33.26 69.5 34.82C66.2 36.39 61.92 38.19 60 38.83C58.08 39.48 50.2 41.29 42.5 42.87C34.8 44.45 26.93 46.54 25 47.51C23.07 48.49 20.49 50.12 19.25 51.14C17.74 52.39 16.35 52.75 15.03 52.25C13.66 51.73 12.42 52.12 11 53.5C9.86 54.6 8.95 56.51 8.97 57.75C8.99 58.99 9.38 60.11 9.85 60.25C10.32 60.39 11.89 64.21 13.35 68.75C14.81 73.29 16.45 77.22 17 77.5C17.55 77.78 19.51 81.26 21.36 85.25C23.21 89.24 25.47 95.42 26.38 99C27.3 102.58 30.93 111.35 34.47 118.5C38 125.65 43.25 136.45 46.13 142.5C49.14 148.81 51.3 154.67 51.19 156.25C51.05 158.21 51.64 159.33 53.25 160.14C54.72 160.88 57.41 161.01 61 160.52C64.03 160.11 67.63 159.76 69 159.76C70.38 159.75 77.13 160.48 84 161.37C90.88 162.27 98.41 163.45 100.75 164C103.09 164.55 108.26 165.01 112.25 165.03C117.92 165.06 119.88 164.68 121.22 163.28C122.17 162.3 122.96 160.94 122.97 160.25C122.99 159.56 124.16 158.44 125.57 157.75C126.98 157.06 128.37 155.38 128.67 154C129 152.46 128.61 150.93 127.65 150C126.25 148.65 126.34 148.23 128.55 145.75C129.9 144.24 131 142.55 131 142C131 141.45 130.32 140.32 129.5 139.5C128.25 138.25 128.2 137.51 129.25 135.01C130.31 132.47 130.24 131.58 128.75 129.01C127.79 127.36 127 125.33 127 124.5C127 123.67 125.65 120.3 124 117C122.35 113.7 120.99 110.44 120.98 109.75C120.96 109.06 120.08 106.7 119.02 104.5C117.97 102.3 115.72 97.13 114.03 93C112.35 88.88 109.83 83.25 108.45 80.5C107.06 77.75 105.09 72.58 104.07 69C103.05 65.42 101.26 60.48 100.09 58C98.92 55.52 96.19 50.58 94.03 47C91.88 43.42 89.83 38.92 89.48 37C89.13 35.08 88.32 32.24 87.67 30.71C86.93 28.95 85.76 27.93 84.5 27.96C83.4 27.98 80.92 28.89 79 29.99Z" />
			<path id="Path 1" class="shp1" d="M76 38.95C72.97 40.51 68.92 42.45 67 43.27C65.08 44.08 61.02 45.44 58 46.28C54.98 47.13 49.35 48.35 45.5 49C41.65 49.65 35.58 51.08 32 52.18C28.42 53.28 23.75 55.6 21.61 57.34L17.73 60.5C20.55 69.03 23.5 75.55 26.11 80.5C28.72 85.45 31.6 92.42 32.51 96C33.42 99.58 37.73 109.81 42.09 118.75C46.44 127.69 50 135.34 50 135.75C50 136.16 51.41 139.2 53.13 142.5C54.85 145.8 56.87 149.29 57.63 150.25C58.76 151.69 59.49 151.81 61.75 150.93C63.26 150.34 66.75 148.37 69.5 146.55C72.25 144.73 76.08 142.37 78 141.32C79.92 140.26 83.75 138.59 86.5 137.6C89.25 136.62 93.97 134.68 97 133.28C100.03 131.89 104.97 129.88 108 128.82C111.03 127.75 114.74 126.12 116.26 125.19C117.78 124.26 119.02 122.94 119.01 122.25C119.01 121.56 118.14 119.31 117.1 117.25C116.05 115.19 114.51 111.92 113.67 110C112.84 108.08 110.27 101.78 107.98 96C105.68 90.22 103.01 83.92 102.04 82C101.07 80.08 99.51 76.03 98.57 73C97.63 69.97 96.13 65.7 95.24 63.5C94.34 61.3 91.5 55.9 88.92 51.5C86.34 47.1 83.77 41.81 83.21 39.75C82.64 37.69 82.03 36.03 81.84 36.06C81.65 36.1 79.03 37.4 76 38.95Z" />
			<path id="Path 2" fill-rule="evenodd" class="shp0" d="M331.48 60C332.31 60 333.64 61.01 334.43 62.25C335.22 63.49 336.18 65.85 336.57 67.5C336.95 69.15 338.77 74.55 340.6 79.5C342.43 84.45 344.61 90.97 345.43 94C346.26 97.03 348.1 101.3 352.14 107.5L350.13 109.5C348.26 111.36 347.96 111.39 345.81 109.92C344.54 109.04 342.77 106.34 341.88 103.92C341 101.49 338.85 95.22 337.12 90C335.39 84.78 333.04 77.58 331.89 74C330.75 70.42 329.57 66.6 329.27 65.5C328.98 64.4 329.01 62.71 329.34 61.75C329.68 60.79 330.64 60 331.48 60ZM83.46 68.2C85.94 68.44 86.5 68.95 86.5 70.94C86.5 73.13 85.49 73.74 77 76.75C71.78 78.61 67.07 80.54 66.55 81.06C66.03 81.58 64.79 82 63.8 82C62.81 82 60.31 83.1 58.25 84.44C56.19 85.78 52.25 87.74 49.5 88.8C46.75 89.85 43.94 90.56 43.25 90.36C42.56 90.16 41.99 88.99 41.97 87.75C41.95 86.13 43 84.97 45.72 83.6C47.8 82.56 50.63 81.07 52 80.29C53.38 79.52 56.98 77.74 60 76.35C63.02 74.96 68.65 72.72 72.5 71.36C76.35 70.01 79.71 68.68 79.96 68.41C80.21 68.13 81.79 68.04 83.46 68.2ZM179.76 70.19C180.6 70.36 181.78 71.26 182.39 72.19C183.25 73.49 183.12 74.29 181.86 75.69C180.97 76.68 177.48 78.51 174.11 79.75C170.35 81.14 168 82.58 168 83.5C168 84.33 169.4 88.04 171.12 91.75C173.51 96.93 174.27 100.02 174.37 105C174.47 110.08 174.06 112.08 172.5 114.17C171.4 115.63 169.26 117.54 167.75 118.42C166.24 119.29 163.99 120.01 162.75 120.03C161.51 120.05 158.7 118.88 156.5 117.44C154.3 116 151.95 114.08 151.28 113.16C150.46 112.03 150.38 110.94 151.03 109.75C151.57 108.79 152.56 107.99 153.25 107.98C153.94 107.97 156.07 109.11 158 110.5C159.93 111.89 162.18 113.01 163 112.99C163.82 112.97 165.3 112.17 166.28 111.22C167.42 110.12 168.05 108.06 168.03 105.5C168.02 103.17 166.54 98.15 164.5 93.5C162.57 89.1 160.66 85.13 160.25 84.67C159.84 84.22 156.41 84.9 152.63 86.17C145.8 88.49 145.76 88.49 144.44 86.5C143.71 85.4 143.29 84.05 143.52 83.5C143.74 82.95 145.18 81.94 146.71 81.25C148.25 80.57 153.1 79.09 157.5 77.97C161.9 76.86 168.05 74.99 171.16 73.82C174.28 72.66 177.14 71.3 177.53 70.8C177.92 70.3 178.92 70.03 179.76 70.19ZM84.98 80.28C85.8 80.4 86.62 81.17 86.81 82C87.01 82.9 85.42 84.57 82.83 86.16C80.45 87.62 77.15 89.15 75.5 89.57C73.85 89.98 70.7 91.42 68.5 92.77C66.3 94.11 62.81 96.29 60.75 97.61C58.69 98.92 56.55 99.78 56 99.5C55.45 99.22 55 98.33 55 97.5C55 96.67 56.46 94.93 58.25 93.61C60.04 92.3 64.88 89.56 69 87.53C73.13 85.5 78.08 82.99 80 81.95C81.92 80.91 84.17 80.16 84.98 80.28ZM256.25 84.12C258.46 84.02 259.01 84.44 259.03 86.25C259.05 87.76 257.82 89.32 255.28 91C253.2 92.38 251.35 94.41 251.18 95.5C251 96.6 252.01 100.31 253.43 103.75C254.84 107.19 256.02 110.79 256.04 111.75C256.07 112.71 255.39 114.06 254.54 114.75C253.28 115.78 252.64 115.64 251 114C249.9 112.9 248.38 110.76 247.61 109.25C246.85 107.74 245.39 103.71 242.5 94.11L246.5 89.67C248.7 87.23 251.18 85 252 84.73C252.82 84.46 254.74 84.18 256.25 84.12ZM276.75 86.03C277.99 86.01 279.79 86.39 280.75 86.86C281.71 87.34 283.51 89.36 284.75 91.36C285.99 93.36 286.99 95.56 286.98 96.25C286.97 96.94 287.76 99.87 288.73 102.77C290.3 107.45 290.33 108.2 289 109.55C288.18 110.38 286.82 110.83 286 110.56C285.18 110.29 283.95 108.82 283.28 107.29C282.61 105.75 281.49 102.31 280.78 99.63C280.08 96.94 278.92 94.24 278.21 93.63C277.35 92.88 276.61 92.84 276 93.5C275.5 94.05 274.95 99 274.79 104.5C274.51 114.03 274.39 114.51 272.25 114.75C270.41 114.95 269.82 114.31 269.01 111.25C268.46 109.19 268.01 104.46 268.01 100.75C268 96.33 268.57 92.98 269.65 91.05C270.55 89.43 272.02 87.64 272.9 87.08C273.78 86.52 275.51 86.05 276.75 86.03ZM197 87.09C197.82 87.05 199.85 87.83 201.5 88.83C203.15 89.84 205.48 92.65 206.67 95.08C207.86 97.51 209.1 100.74 209.42 102.25C209.74 103.76 209.55 105.9 209 107C208.45 108.1 206.31 110.82 204.25 113.05C200.98 116.58 199.96 117.09 196.25 117.05C193.85 117.02 189.93 115.96 187.25 114.61C184.64 113.3 182.16 111.5 181.75 110.61C181.34 109.73 180.99 105.96 180.98 102.25C180.97 98.36 181.5 94.76 182.23 93.75C182.93 92.79 186.2 90.92 189.5 89.59C192.8 88.26 196.18 87.14 197 87.09ZM188 97C187.94 107.38 188.03 107.55 191.92 109.5C195.61 111.36 196.06 111.39 198.2 109.89C199.46 109.01 201.12 107.21 201.88 105.89C203.06 103.85 203.06 102.99 201.88 100.04C201.12 98.14 199.94 96 199.25 95.29C198.56 94.58 197.66 94.06 197.25 94.13C196.84 94.2 194.59 94.87 192.25 95.63L188 97ZM308.95 87.03C310.9 87.05 313.85 87.9 315.5 88.93C317.15 89.96 319.11 92.09 319.86 93.65C320.61 95.22 322.75 98.41 324.61 100.75C326.48 103.09 327.88 105.79 327.74 106.75C327.59 107.78 326.45 108.62 324.99 108.8C323.43 108.98 321.65 108.24 317.96 104.5L316.48 106.75C315.17 108.73 314.27 108.97 302.66 108.5L299.7 103.5C297.49 99.76 296.93 97.87 297.47 96C297.88 94.63 299.83 92.04 301.81 90.25C304.47 87.85 306.33 87.01 308.95 87.03ZM303.5 97.83C307.38 101.88 308.95 103.02 309.5 102.99C310.05 102.95 311.05 102.15 311.72 101.21C312.39 100.27 312.96 98.6 312.98 97.5C313.01 96.4 312.46 94.93 311.77 94.23C311.07 93.54 310.19 92.97 309.81 92.98C309.43 92.99 307.86 94.09 306.31 95.42L303.5 97.83ZM233.36 89.19C234.51 89.36 236.05 90.63 236.78 92C237.67 93.67 237.96 96.84 237.68 101.5C237.44 105.35 236.51 109.96 235.62 111.75C234.73 113.54 232.99 115.68 231.75 116.51C230.51 117.34 228.49 118.01 227.25 118.01C226.01 118 223.65 117.33 222 116.5C220.09 115.55 218.05 113.09 216.38 109.75C214.52 106.02 213.73 102.76 213.63 98.5C213.51 92.78 213.61 92.5 215.92 92.5C217.64 92.5 218.53 93.21 219.03 95C219.41 96.38 220.26 99.75 220.93 102.5C221.59 105.25 222.89 108.3 223.82 109.28C224.74 110.26 226.29 111.05 227.25 111.03C228.39 111.01 229.4 109.69 230.14 107.25C230.76 105.19 231.06 100.8 230.79 97.5C230.52 94.2 230.52 90.91 230.79 90.19C231.05 89.48 232.21 89.03 233.36 89.19Z" />
			<path id="Path 3" class="shp2" d="M110 135.13C104.78 137.33 97.27 140.33 93.32 141.81C89.37 143.29 85.57 145.06 84.87 145.75C83.85 146.76 83.98 147 85.55 146.98C86.62 146.97 89.97 146.3 93 145.5C96.03 144.69 101.42 143.85 105 143.62C108.58 143.4 112.74 143.17 114.25 143.11C116.14 143.03 117.01 142.45 117.04 141.25C117.06 140.29 118.41 138.04 120.04 136.25C121.67 134.46 122.78 132.55 122.5 132C122.22 131.45 121.44 131.03 120.75 131.07C120.06 131.1 115.22 132.93 110 135.13ZM96.5 149.67C95.4 149.91 93.38 150.64 92 151.3C90.63 151.96 88.94 153.06 88.25 153.75C87.25 154.75 87.3 155.1 88.5 155.5C89.33 155.78 95.74 156.28 102.75 156.62C114.91 157.21 115.58 157.14 117.25 155.12C118.92 153.1 118.92 152.9 117.25 150.99C115.73 149.25 114.36 149 107 149.11C102.33 149.18 97.6 149.43 96.5 149.67Z" />
		</g>
	</g>
</svg>