<svg xmlns="http://www.w3.org/2000/svg" viewBox="0 0 295 156" width="443" height="234">
	<style>
		tspan { white-space:pre }
		.shp0 { fill: #000000 } 
		.shp1 { fill: #147c1a } 
		.shp2 { fill: #e2b979 } 
	</style>
	<g id="Background">
		<g id="Layer 2">
			<path id="Path 0" class="shp0" d="M63 25.69C60.52 27.16 55.13 29.59 51 31.1C46.88 32.6 41.7 34.07 39.5 34.35C37.3 34.64 33.02 35.41 30 36.07C26.98 36.74 22.59 38.12 20.25 39.14C17.91 40.16 15.78 41.45 15.5 42C15.22 42.55 13.84 43 12.43 43C11.01 43 9.21 43.67 8.43 44.5C7.64 45.32 7 46.67 7 47.5C7 48.33 7.34 48.99 7.75 48.98C8.16 48.97 9.36 51.56 10.4 54.73C11.45 57.9 13.99 63.65 16.06 67.5C18.13 71.35 20.63 77.42 21.62 81C22.6 84.58 25.63 92 28.35 97.5C31.06 103 35.26 111.78 37.67 117C40.08 122.22 42.04 127.51 42.03 128.75C42.01 130.4 42.74 131.17 44.75 131.63C46.26 131.97 49.75 131.96 52.5 131.6C55.41 131.22 61.78 131.59 67.75 132.47C73.39 133.31 78.45 133.78 79 133.5C79.55 133.22 80.56 133.45 81.25 134C81.94 134.54 86.33 134.88 91 134.75C98.75 134.52 99.59 134.3 100.5 132.24C101.05 130.99 102.29 129.75 103.25 129.49C104.21 129.22 105.23 128.21 105.51 127.25C105.8 126.29 105.35 124.49 104.51 123.25C103.68 122.01 103.34 121.01 103.75 121.03C104.16 121.04 105.17 119.94 106 118.57C107.21 116.57 107.26 115.79 106.25 114.55C105.37 113.45 105.29 112.42 106 111C106.73 109.55 106.59 108.32 105.5 106.5C104.67 105.13 104 103.33 104 102.5C104 101.67 102.91 98.64 101.58 95.75C100.24 92.86 96.6 84.42 93.49 77C90.37 69.58 86.37 59.45 84.6 54.5C82.83 49.55 79.72 42.91 77.69 39.75C75.66 36.59 73.72 32.31 73.37 30.25C73.02 28.19 72.35 25.71 71.87 24.75C71.39 23.79 70.21 23 69.25 23.01C68.29 23.01 65.47 24.22 63 25.69Z" />
			<path id="Path 1" class="shp1" d="M60 33.08C56.98 34.64 52.02 36.66 49 37.55C45.98 38.45 42.15 39.35 40.5 39.56C38.85 39.76 36.15 40.21 34.5 40.54C32.85 40.87 29.25 41.85 26.5 42.72C23.75 43.59 19.99 45.48 18.15 46.9C15.28 49.13 14.88 49.93 15.41 52.5C15.75 54.15 18.2 59.77 20.87 65C23.54 70.22 26.26 76.75 26.92 79.5C27.58 82.25 31.25 91.03 35.08 99C38.9 106.97 43.31 115.97 44.87 119C47 123.14 48.16 124.42 49.6 124.17C50.64 123.99 54.2 122.09 57.5 119.95C60.8 117.8 70.7 113.08 79.5 109.45C88.3 105.82 96.06 102.66 96.75 102.42C97.44 102.19 97.99 101.66 97.98 101.25C97.96 100.84 97 98.47 95.83 96C94.67 93.53 93.13 90.15 92.41 88.5C91.69 86.85 88.86 80.1 86.12 73.5C83.37 66.9 80.2 58.69 79.06 55.25C77.93 51.81 75.27 46.19 73.15 42.75C71.03 39.31 69 35.04 68.65 33.25C68.29 31.46 67.44 30.05 66.75 30.12C66.06 30.18 63.02 31.51 60 33.08Z" />
			<path id="Path 2" fill-rule="evenodd" class="shp0" d="M271.92 48.96C272.24 48.93 272.98 49.49 273.56 50.21C274.15 50.92 276.79 58.02 279.42 66C282.06 73.97 285.07 82.19 286.11 84.25C287.15 86.31 287.77 88.67 287.5 89.5C287.23 90.33 286.32 91 285.5 91C284.68 91 283.39 90.44 282.64 89.75C281.88 89.06 278.73 80.96 275.64 71.75C272.54 62.54 269.93 53.95 269.83 52.67C269.74 51.38 270.04 50.03 270.5 49.67C270.96 49.3 271.6 48.98 271.92 48.96ZM68.25 56.09C69.76 56.04 71.19 56.56 71.41 57.25C71.64 57.94 71.53 58.97 71.16 59.54C70.8 60.12 67.18 61.69 63.13 63.04C59.08 64.39 51.43 67.58 46.13 70.13C40.83 72.68 35.94 74.59 35.25 74.38C34.56 74.17 34 73.1 34 72C34 70.47 36.16 68.95 43.25 65.51C48.34 63.04 55.42 59.93 59 58.6C62.58 57.27 66.74 56.15 68.25 56.09ZM147.25 58.04C148.21 58.02 149.22 58.45 149.5 59C149.78 59.55 149.55 60.9 149 62C148.41 63.18 145.85 64.67 142.75 65.63C139.86 66.53 137.38 67.32 137.24 67.38C137.1 67.45 138.34 70.76 139.99 74.75C141.82 79.15 143 83.77 143 86.5C143 89.33 142.26 92.11 141 94C139.9 95.65 137.88 97.45 136.5 98C134.69 98.72 133.1 98.62 130.75 97.62C128.96 96.86 126.49 95.28 125.25 94.12C124.01 92.95 123 91.55 123 91C123 90.45 123.79 89.71 124.75 89.35C125.71 88.99 127.29 89.22 128.25 89.85C129.21 90.48 130.87 91.56 131.94 92.25C133.58 93.3 134.21 93.19 135.97 91.5C137.13 90.39 138.05 88.27 138.03 86.75C138.01 85.24 136.84 81.19 135.41 77.75C133.99 74.31 132.3 70.95 131.66 70.28C130.75 69.31 129.44 69.37 125.5 70.54C122.75 71.36 119.94 72.02 119.25 72.01C118.56 72.01 118 70.88 118 69.5C118 67.31 118.71 66.8 123.75 65.39C126.91 64.5 131.97 63.12 135 62.32C138.03 61.51 141.63 60.23 143 59.47C144.38 58.7 146.29 58.06 147.25 58.04ZM69.59 66.03C70.19 66.01 70.64 66.72 70.59 67.61C70.54 68.49 68.92 70.04 67 71.05C65.08 72.06 61.02 74.1 58 75.59C54.98 77.08 51.26 79.24 49.74 80.4C47.56 82.06 46.73 82.24 45.74 81.27C44.75 80.3 44.91 79.61 46.5 77.92C47.6 76.74 53 73.6 58.5 70.92C64 68.24 68.99 66.04 69.59 66.03ZM209.46 69C211.2 69 212.01 69.55 212.02 70.75C212.03 71.71 210.68 73.51 209.02 74.75C207.2 76.11 206.01 77.89 206.02 79.25C206.03 80.49 206.95 83.53 208.05 86C209.15 88.47 210.04 91.29 210.03 92.25C210.01 93.21 209.28 94.34 208.39 94.75C207.28 95.27 206.2 94.73 204.91 93C203.88 91.63 202.08 87.58 198.78 77.5L202.85 73.25C205.55 70.44 207.78 69 209.46 69ZM226.75 70.06C226.89 70.03 228.13 70.56 229.52 71.25C230.9 71.94 232.67 73.85 233.45 75.5C234.23 77.15 235.53 80.75 236.34 83.5C237.16 86.25 237.63 89.06 237.41 89.75C237.18 90.44 236.32 91 235.5 91C234.68 91 233.36 89.99 232.57 88.75C231.79 87.51 230.88 84.92 230.55 83C230.23 81.08 229.3 78.6 228.5 77.5C227.23 75.77 226.9 75.7 225.99 77C225.41 77.83 225 81.42 225.08 85C225.16 88.58 225.17 92.06 225.11 92.75C225.05 93.44 224.1 94 223 94C221.9 94 220.78 93.33 220.5 92.5C220.22 91.67 220 87.63 220 83.5C220 79.38 220.54 75.07 221.21 73.94C221.87 72.81 223.33 71.49 224.46 71.01C225.58 70.52 226.61 70.1 226.75 70.06ZM161 71.12C161.28 71.06 162.96 71.91 164.75 73C166.54 74.1 168.62 76.24 169.38 77.75C170.14 79.26 171.07 81.85 171.45 83.5C172.01 85.96 171.52 87.32 168.77 91C165.92 94.83 164.82 95.55 161.46 95.82C158.94 96.02 155.95 95.38 153.25 94.07C150.91 92.93 148.95 91.66 148.88 91.25C148.81 90.84 148.65 88.25 148.52 85.5C148.39 82.75 148.56 79.46 148.89 78.19C149.32 76.58 151.16 75.18 155 73.55C158.03 72.27 160.72 71.17 161 71.12ZM154.25 83.88C154.05 87.2 154.44 88.29 156.25 89.51C157.49 90.34 159.18 91.02 160 91.03C160.82 91.04 162.5 90.03 163.73 88.78C164.95 87.52 165.97 85.71 165.98 84.75C165.99 83.79 165.44 81.86 164.75 80.48C164.06 79.09 163.03 77.83 162.45 77.67C161.88 77.52 159.86 77.92 157.95 78.57C154.84 79.64 154.48 80.15 154.25 83.88ZM252.58 71C253.36 71 255.63 71.79 257.61 72.75C259.64 73.73 261.83 75.82 262.6 77.5C263.36 79.15 265.11 81.74 266.49 83.25C267.87 84.76 269 86.67 269 87.5C269 88.33 268.32 89.22 267.5 89.5C266.68 89.78 265.1 89.55 264 89C262.9 88.45 261.8 87.44 261.56 86.75C261.26 85.89 260.62 86.13 259.51 87.5C258.43 88.85 256.53 89.56 253.7 89.69C251.39 89.8 249.05 89.58 248.5 89.19C247.95 88.81 246.49 86.59 245.25 84.25C243.7 81.32 243.27 79.45 243.87 78.25C244.35 77.29 246.18 75.26 247.95 73.75C249.72 72.24 251.8 71 252.58 71ZM251.08 83L253.03 85.5C256.17 81.94 256.79 80.17 256.5 79C256.22 77.9 255.17 77 254.15 77C253.13 77 251.58 77.79 250.71 78.75C249.26 80.35 249.29 80.71 251.08 83ZM191.83 73.19C192.71 73.36 193.83 74.85 194.32 76.5C194.82 78.15 194.89 82.2 194.48 85.5C193.91 90.17 193.13 92.11 190.95 94.25C189.36 95.82 187.04 97 185.58 97C184.05 97 181.78 95.78 180 94C178.35 92.35 176.6 89.31 176.1 87.25C175.61 85.19 174.93 82.04 174.6 80.25C174.18 77.95 174.44 76.71 175.5 76C176.4 75.4 177.5 75.36 178.25 75.89C178.94 76.38 179.77 78.52 180.1 80.64C180.43 82.76 181.34 85.85 182.11 87.5C182.97 89.33 184.39 90.6 185.76 90.75C187.34 90.93 188.19 90.34 188.66 88.75C189.02 87.51 189.17 83.86 189 80.64C188.82 77.41 189.02 74.35 189.45 73.83C189.88 73.31 190.95 73.03 191.83 73.19Z" />
			<path id="Path 3" class="shp2" d="M97.92 107.46C97.69 107.71 91.42 110.41 84 113.46C76.58 116.52 70.14 119.49 69.69 120.07C69.15 120.77 69.82 120.94 71.69 120.58C73.24 120.28 76.08 119.57 78 119.02C79.92 118.46 84.09 118 87.25 118C90.41 118 93.67 117.78 94.5 117.5C95.33 117.22 96 116.55 96 116C96 115.45 97.13 113.65 98.5 112C99.88 110.35 100.78 108.55 100.5 108C100.22 107.45 99.63 107 99.17 107C98.71 107 98.15 107.21 97.92 107.46ZM79 122.98C77.63 123.37 75.49 123.99 74.25 124.35C73.01 124.71 72 125.67 72 126.5C72 127.33 72.56 128.01 73.25 128.02C73.94 128.03 78.79 128.31 84.04 128.64C91.92 129.14 93.96 128.96 95.79 127.62C97.89 126.08 97.91 125.92 96.25 124.3C95.01 123.09 92.6 122.54 88 122.43C84.42 122.34 80.38 122.58 79 122.98Z" />
		</g>
	</g>
</svg>