<svg xmlns="http://www.w3.org/2000/svg" viewBox="0 0 312 163" width="312" height="163">
	<style>
		tspan { white-space:pre }
		.shp0 { fill: #010202 } 
		.shp1 { fill: #df2d2d } 
	</style>
	<g id="Layer 2">
		<path id="Path 0" class="shp0" d="M77.25 10.51C74.91 11.88 72.74 13.79 72.43 14.75C72.11 15.71 68.73 19.09 64.93 22.25C58.21 27.83 57.86 27.98 53.25 27.47C50.64 27.17 44.06 26.68 38.63 26.37L28.77 25.81C20.73 33.96 18.83 36.93 18.01 40C17.35 42.48 17.03 46.08 17.29 48C17.55 49.92 18.5 53.41 19.38 55.75C20.27 58.09 22.57 62.25 24.5 65C26.88 68.4 28 71.12 28 73.5C28 75.42 27.55 77 27 77C26.45 77 25.55 78.13 25 79.5C24.45 80.88 22.24 84.81 20.08 88.25C17.57 92.27 15.78 96.64 15.08 100.5C14.48 103.8 13.99 109.76 13.99 113.75C14 117.74 14.63 122.46 15.39 124.25C16.16 126.04 19.64 130.21 23.14 133.52C26.64 136.84 32.2 141.07 35.5 142.93C40.92 145.98 42.01 146.25 46.75 145.66C49.64 145.29 54.81 143.84 58.25 142.43C61.69 141.01 65.75 138.88 67.29 137.68C68.82 136.48 71.63 134.26 73.54 132.75C76.45 130.44 77.28 130.2 78.75 131.24C79.71 131.92 83.88 135.92 88 140.13C92.13 144.34 96.51 148.29 97.75 148.89C98.99 149.5 102.47 150 105.5 150C110.58 150 111.52 149.61 117.75 144.86C121.46 142.03 125.85 138.48 127.5 136.97C129.15 135.46 131.96 133.5 133.75 132.61C135.54 131.73 137.56 131.31 138.25 131.69C138.94 132.06 141.19 134.31 143.25 136.69C145.31 139.06 147.9 141.22 149 141.5C150.1 141.78 150.99 142.79 150.97 143.75C150.95 144.71 151.74 146.28 152.72 147.22C154.15 148.61 156.4 148.95 164.25 148.97L174 149C182.14 142.95 185.2 140.59 186.06 139.85C186.92 139.11 189.96 136.36 192.81 133.75C195.67 131.14 198.56 128.98 199.25 128.97C199.94 128.95 203.99 131.65 208.25 134.97C212.51 138.28 218.14 142.14 220.75 143.52C223.45 144.96 227.12 146.04 229.25 146.02C231.31 146.01 234.8 145.1 237 144C239.2 142.9 241.79 140.98 242.75 139.74C243.71 138.49 245.76 136.58 247.29 135.49C248.83 134.39 251.3 131.27 252.79 128.54C254.28 125.81 257.52 122.06 260 120.21C262.48 118.36 266.98 116.18 270 115.38C273.02 114.57 277.98 113.18 281 112.27C284.02 111.37 287.59 109.48 288.92 108.07C291.02 105.84 291.28 104.78 290.89 100C290.57 95.99 289.58 93.15 287.21 89.5C285.42 86.75 283.97 83.26 283.98 81.75C283.99 79.75 286.45 76.14 293 68.5C301.6 58.46 302 57.79 301.99 53.25C301.99 50.06 301.25 47.32 299.74 44.93C298.51 42.96 293.45 37.81 288.5 33.48L279.5 25.6C264.67 24.7 260.52 23.92 258.96 22.9C257.6 22.02 254.25 19.37 251.5 17C248.75 14.63 244.59 11.87 242.25 10.85C239.21 9.53 235.64 9.01 229.75 9.04L221.5 9.08C216.85 14.74 213.93 17.93 212 19.81C210.07 21.7 206.93 23.87 205 24.65C203.07 25.42 200.04 26.04 198.25 26.02C196.46 26.01 193.99 25.49 192.75 24.88C191.51 24.26 189.6 22.95 188.5 21.97C187.4 20.99 184.25 18.96 181.5 17.47C178.75 15.97 175.82 14.16 175 13.45C174.18 12.75 171.03 11.23 168 10.08C164.97 8.94 160.59 8 158.25 8C155.91 8 153.78 8.45 153.5 9C153.22 9.55 151.43 10.68 149.5 11.5C147.57 12.32 144.54 14.53 142.75 16.4C140.96 18.26 137.7 21.2 135.5 22.93C133.3 24.66 130.49 26.05 129.25 26.03C128.01 26.02 125.31 25.15 123.25 24.11C121.19 23.06 116.58 20.05 113 17.4C109.42 14.76 103.69 11.56 100.25 10.3C96.19 8.8 91.81 8 87.75 8.01C82.91 8.02 80.54 8.58 77.25 10.51Z" />
		<path id="Path 1" class="shp1" d="M84 18.99C83.17 19.5 78.22 24.01 73 29.01L63.5 38.1C49.55 37.25 42.71 36.75 39.3 36.43C33.42 35.88 32.97 36 30.55 38.67C28.93 40.47 27.97 42.77 27.9 45C27.84 46.92 28.51 50.19 29.39 52.25C30.28 54.31 31.95 57.01 33.12 58.25C34.28 59.49 35.86 61.96 36.62 63.75C37.38 65.54 38.01 70.26 38.02 74.25C38.04 81.34 37.94 81.64 33.46 87.5C30.94 90.8 27.9 95.53 26.71 98C25.04 101.45 24.53 104.36 24.52 110.5C24.51 116.76 24.95 119.26 26.55 122C27.68 123.92 31.84 127.86 35.8 130.75C41.61 134.99 43.53 135.89 45.75 135.43C47.26 135.12 50.52 134.15 53 133.27C55.48 132.4 58.77 130.74 60.33 129.59C61.88 128.44 64.24 126.49 65.58 125.25C66.91 124.01 69.35 122.33 71 121.5C72.65 120.67 75.8 120 78 120C80.78 120 82.84 120.73 84.75 122.39C86.26 123.7 90.99 128.2 95.25 132.39C99.51 136.57 103.79 140.01 104.75 140.03C105.71 140.04 108.24 138.8 110.36 137.28C112.49 135.75 116.31 132.62 118.86 130.33C121.41 128.04 126.42 124.73 130 122.98C134.93 120.56 137.29 119.94 139.75 120.4C141.89 120.79 144.8 122.84 148.25 126.37C151.14 129.33 154.96 132.48 156.75 133.37C158.54 134.27 160.22 135.9 160.5 137C160.91 138.63 161.83 139 165.5 139C169.6 139 170.78 138.36 178.75 131.83C183.56 127.89 187.84 124.06 188.25 123.33C188.66 122.6 190.35 121.33 192 120.5C193.65 119.67 197.36 118.98 200.25 118.97C204.95 118.93 205.99 119.35 210.25 122.97C212.86 125.18 215.45 127 216 127C216.55 127 218.01 128.17 219.25 129.6C220.49 131.03 223.19 133.05 225.25 134.1C227.31 135.14 229.45 136 230 136C230.55 136 232.91 134.17 235.25 131.93C237.59 129.69 239.97 127.55 240.55 127.18C241.14 126.81 242.67 124.7 243.96 122.5C245.26 120.3 247.71 117.01 249.41 115.19C251.11 113.36 254.75 110.56 257.5 108.97C260.25 107.37 265.43 105.42 269 104.64C272.57 103.85 276.74 102.72 278.25 102.11C279.76 101.5 281.02 100.66 281.03 100.25C281.05 99.84 280.22 98.38 279.18 97C278.13 95.63 276.54 93.04 275.64 91.25C274.74 89.46 273.95 86.76 273.9 85.25C273.81 82.99 273.55 83.3 272.45 87C271.45 90.33 270.38 91.8 268.3 92.67C266.76 93.31 263.14 94.1 260.25 94.42C257.36 94.74 254.26 94.66 253.36 94.25C252.46 93.84 251.34 92.71 250.86 91.75C250.38 90.77 250.38 89.23 250.87 88.25C251.35 87.29 253.83 85.94 256.37 85.25C258.92 84.56 261.01 83.66 261.02 83.25C261.03 82.84 260.46 81.76 259.77 80.86C259.03 79.91 256.4 78.99 253.5 78.67C250.47 78.34 247.34 77.21 245.55 75.81L242.6 73.5C243.69 82.03 244.29 86.08 244.65 88C245.16 90.78 244.85 91.96 243.14 93.75C241.96 94.99 240.55 96 240 96C239.45 96 238.19 95.21 237.19 94.25C236.01 93.11 234.93 89.56 234.09 84C233.38 79.33 231.5 71.67 229.92 67C228.09 61.6 227.03 56.4 227.02 52.75C227.01 49.59 227.45 46.1 228 45C228.67 43.67 230 43 232 43C234 43 235.33 43.67 236 45C236.55 46.1 237 49.02 237 51.5C237 53.98 237.56 58.03 238.25 60.51C238.94 62.99 239.72 65.02 240 65.02C240.28 65.02 241.3 63.55 242.27 61.76C243.25 59.97 245.5 57.53 247.27 56.35C249.05 55.16 251.85 53.89 253.5 53.53C255.15 53.17 258.41 53.35 260.75 53.94C263.25 54.56 265.41 55.82 266 57C266.67 58.33 266.67 59.67 266 61C265.45 62.1 264.44 63.06 263.75 63.13C263.06 63.2 260.48 63.16 258 63.03C254.86 62.87 253.12 63.29 252.25 64.4C251.56 65.28 251.22 66.67 251.5 67.5C251.78 68.33 252.9 69 254 69C255.1 69 258.25 69.45 261 70C265.42 70.88 266.37 71.55 269.15 75.75L272.31 80.5C277.49 70.04 279.56 66.78 280.25 66.52C280.94 66.26 283.93 62.99 286.9 59.27C291.88 53.02 292.19 52.34 290.9 50.36C290.13 49.18 286.01 45.24 281.75 41.61L274 35C259.46 35.08 257.14 34.71 256 33.5C255.18 32.63 254.05 31.94 253.5 31.97C252.95 32 250.25 29.97 247.5 27.46C244.75 24.94 240.81 22.01 238.75 20.94C236.69 19.87 233.2 19 231 19C227.85 19 226.52 19.59 224.75 21.74C223.51 23.24 220.93 26.02 219 27.91C217.07 29.79 213.14 32.38 210.25 33.67C206.5 35.33 203.14 36 198.5 36C193.57 36 190.79 35.4 187 33.5C184.25 32.13 181.84 30.66 181.64 30.25C181.45 29.84 178.19 27.7 174.39 25.5C170.6 23.31 166.15 20.92 164.5 20.2C162.03 19.11 160.72 19.11 157.06 20.19C153.88 21.13 150.89 23.25 146.56 27.65C143.23 31.03 139.26 34.29 137.75 34.9C136.24 35.5 132.53 36 129.5 36C125.33 36 122.49 35.24 117.75 32.86C114.31 31.14 109.03 27.83 106 25.52C102.97 23.21 98.25 20.57 95.5 19.65C92.75 18.73 89.38 18 88 18.02C86.63 18.04 84.83 18.48 84 18.99Z" />
		<path id="Path 2" class="shp0" d="M151.87 39.25C151.27 40.49 151.02 42.63 151.32 44C151.62 45.38 153.02 47.17 154.42 48C155.83 48.83 157.2 50.4 157.47 51.5C157.75 52.6 157.99 55.3 158.01 57.5C158.04 61.21 157.81 61.56 154.77 62.26C152.97 62.68 150.49 63.02 149.25 63.01C147.99 63.01 146.56 63.88 146 65C145.33 66.33 145.33 67.67 146 69C146.55 70.1 148.01 71.22 149.25 71.49C150.49 71.76 153.71 72.09 156.41 72.24L161.32 72.5C165.49 84.13 167.67 89.41 168.85 91.75C170.03 94.09 171.9 96.45 173 97C174.18 97.59 175.72 97.64 176.75 97.14C177.71 96.66 178.84 95.54 179.25 94.64C179.7 93.66 179.2 91.28 178.02 88.75C176.93 86.41 176.02 83.6 175.99 82.5C175.96 81.4 174.83 78.7 173.47 76.5C172.12 74.3 171.01 71.94 171.01 71.25C171 70.44 172.55 70 175.43 70C178 70 180.52 69.37 181.43 68.5C182.29 67.67 183 66.1 183 65C183 63.9 182.32 62.33 181.5 61.5C180.31 60.31 178.74 60.16 173.99 60.75L167.98 61.5C167.93 55.3 167.52 51.48 167.04 49C166.38 45.63 165.13 43.56 162.08 40.75C159.62 38.49 157 37 155.48 37C153.86 37 152.57 37.8 151.87 39.25ZM58 50.07C56.08 50.55 53.25 52.19 51.73 53.72C49.74 55.72 48.97 57.48 48.99 60C49.01 61.92 50.14 65.86 51.51 68.75C52.88 71.64 54.01 75.69 54.01 77.75C54.02 79.81 54.44 82.85 54.94 84.5C55.45 86.15 56.31 89.3 56.86 91.5C57.4 93.7 58.45 98.18 59.18 101.45C59.9 104.72 61.06 107.98 61.75 108.7C62.44 109.41 63.87 110 64.93 110C65.99 110 67.61 109.21 68.54 108.25C69.6 107.15 70.03 105.57 69.7 104C69.41 102.63 68.46 98.35 67.59 94.5C66.71 90.65 66 87.16 66 86.75C66 86.34 70.05 86 75 86C80.07 86 84.98 85.48 86.25 84.8C88.29 83.72 88.42 83.79 87.66 85.55C87.19 86.62 86.58 89.97 86.3 93C85.89 97.45 86.16 98.98 87.73 101C88.8 102.38 91.32 104.29 93.34 105.25C95.35 106.21 98.24 107.01 99.75 107.02C101.26 107.03 104.53 105.73 107 104.12C110 102.17 112.16 99.75 113.49 96.85C114.62 94.37 115.48 90.34 115.49 87.46C115.49 84.51 114.84 81.39 113.91 79.96C112.56 77.88 111.17 77.37 104.91 76.65C100.83 76.19 96.04 76.07 94.25 76.4C92.46 76.73 90.56 77.79 90.03 78.75C89.31 80.05 89.05 79.01 89.03 74.75C89.01 71.59 88.38 67.76 87.61 66.25C86.85 64.74 84.26 61.67 81.86 59.44C79.46 57.2 74.58 53.95 71 52.22C67.42 50.48 63.83 49.09 63 49.13C62.17 49.17 59.92 49.6 58 50.07Z" />
		<path id="Path 3" class="shp1" d="M59 60.5C59 61.33 60.24 65.15 61.75 69.01L64.5 76.02L79 76C79 71 78 69 76 67C74.35 65.35 70.86 62.86 68.25 61.48C65.64 60.09 62.49 58.96 61.25 58.98C59.93 58.99 59 59.62 59 60.5Z" />
		<path id="Path 4" class="shp0" d="M188.96 70.25C187.29 72.59 185.54 75.85 185.08 77.5C184.61 79.15 184.6 82.53 185.04 85C185.56 87.9 186.76 90.3 188.42 91.75C189.84 92.99 192.24 93.99 193.75 93.97C195.64 93.95 197.6 92.73 200 90.11C201.93 88.01 204.4 86.17 205.5 86.03C206.6 85.89 208.4 85.83 209.5 85.91C210.61 85.98 212.73 87.82 214.25 90.02C215.76 92.21 218.35 94.67 220 95.5C221.93 96.47 223.62 96.69 224.75 96.14C225.71 95.66 226.84 94.54 227.25 93.64C227.66 92.74 227.59 91.21 227.09 90.25C226.59 89.29 224.98 87.38 223.5 86C222.03 84.63 220.19 82.04 219.41 80.25C218.6 78.38 217.05 76.77 215.75 76.46C214.5 76.17 212.94 74.61 212.25 72.96C211.45 71.06 210.01 69.77 208.25 69.35C206.74 68.99 204.6 68.09 203.5 67.34C202.4 66.6 199.36 65.99 196.76 65.99C192.32 66 191.81 66.28 188.96 70.25ZM134 69.73C132.63 69.98 130.71 70.82 129.75 71.59C128.68 72.45 127.81 72.61 127.5 72C127.22 71.45 125.65 71 124 71C122 71 120.67 71.67 120 73C119.45 74.1 119 76.13 119 77.5C119 78.88 119.62 81.24 120.38 82.75C121.14 84.26 122.29 87.97 122.94 91C123.59 94.03 124.88 97.85 125.8 99.5C126.72 101.15 128.16 103.3 128.99 104.28C129.82 105.26 131.18 106.07 132 106.07C132.82 106.07 134.4 105.13 135.5 103.98L137.5 101.9C133.99 91.52 132.98 87.71 132.99 86.75C132.99 85.79 133.45 85 134 85C134.55 85 135.28 83.99 135.62 82.75C136.16 80.78 136.38 80.69 137.37 82.09C137.99 82.96 139.51 84.2 140.75 84.84C141.99 85.48 143.9 85.78 145 85.5C146.1 85.22 147.27 83.99 147.59 82.75C147.92 81.51 147.48 78.7 146.62 76.5C145.68 74.12 143.82 71.79 142.02 70.75C140.36 69.79 138.44 69.06 137.75 69.14C137.06 69.21 135.38 69.48 134 69.73Z" />
		<path id="Path 5" class="shp1" d="M195.58 76.5C195.26 77.33 195 78.45 195 79C195 79.55 196.11 79.21 197.47 78.25C198.83 77.29 199.95 76.16 199.97 75.75C199.99 75.34 199.14 75 198.08 75C197.03 75 195.91 75.67 195.58 76.5ZM96.44 90.75C95.87 94.74 96.07 95.69 97.63 96.72C98.9 97.54 100.06 97.62 101.25 96.97C102.21 96.43 103.67 94.42 104.5 92.5C105.33 90.58 106 88.33 106 87.5C106 86.39 104.84 86 101.55 86L97.11 86" />
	</g>
</svg>