<svg xmlns="http://www.w3.org/2000/svg" viewBox="0 0 312 163" width="312" height="163">
	<style>
		tspan { white-space:pre }
		.shp0 { fill: #010102 } 
		.shp1 { fill: #fbf72e } 
	</style>
	<g id="Background">
		<path id="Path 0" class="shp0" d="M85.5 22.47C84.95 22.63 78.2 24.73 70.5 27.11C62.8 29.5 54.02 32.86 51 34.59C47.98 36.32 43.7 39.75 41.5 42.21C39.3 44.67 35.75 50.02 33.62 54.09C31.48 58.17 29.08 63.52 28.28 66C27.49 68.47 26.58 76.35 26.28 83.5C25.92 91.76 26.12 97.78 26.82 100C27.43 101.92 29.4 105.4 31.21 107.71C33.02 110.03 38.1 115.12 42.5 119.03C47.13 123.14 53.24 127.43 57 129.19C61.38 131.25 67.41 132.89 75.5 134.22C83.38 135.51 89.56 135.99 93.5 135.59C96.8 135.26 102.42 134.03 106 132.86C109.58 131.69 115.42 128.83 119 126.5C122.58 124.17 126.92 120.52 128.67 118.38C130.41 116.25 133.71 110 136.01 104.5C138.3 99 140.82 92.25 141.6 89.5C142.51 86.25 143.01 79.51 143 70.25C143 60.83 142.56 54.9 141.69 52.75C140.97 50.96 138.68 47.25 136.61 44.5C134.54 41.75 131.42 38.31 129.67 36.85C127.93 35.39 123.35 32.62 119.5 30.71C115.65 28.79 109.58 26.04 106 24.6C101.14 22.63 97.86 21.99 93 22.06C89.42 22.12 86.05 22.3 85.5 22.47Z" />
		<path id="Path 1" class="shp1" d="M83.5 28.51C82.95 28.71 77.1 30.53 70.5 32.55C63.85 34.6 55.84 37.86 52.54 39.87C49.26 41.87 45.28 45.3 43.7 47.5C42.11 49.7 39.45 54.2 37.77 57.5C36.1 60.8 34.09 65.53 33.29 68C32.5 70.47 31.6 77.9 31.29 84.5C30.79 95.24 30.94 96.92 32.75 100.5C33.87 102.7 38.54 108.12 43.14 112.55C48.91 118.11 53.67 121.66 58.5 124.02C62.86 126.14 68.52 127.91 73.5 128.7C77.9 129.39 85.1 129.97 89.5 129.99C95.1 130.01 99.45 129.37 104 127.85C107.58 126.66 112.75 124.27 115.5 122.54C118.25 120.81 122.08 117.52 124 115.24C125.92 112.95 129.22 106.9 131.31 101.79C133.41 96.68 135.77 90.25 136.55 87.5C137.44 84.37 137.98 77.83 137.97 70C137.97 59.17 137.68 56.9 135.78 53C134.57 50.52 131.54 46.44 129.04 43.93C126.23 41.1 121.27 37.81 116 35.28C111.33 33.03 105.7 30.46 103.5 29.57C100.93 28.53 96.82 27.99 92 28.05C87.88 28.11 84.05 28.32 83.5 28.51Z" />
		<path id="Path 2" fill-rule="evenodd" class="shp0" d="M167.5 32.03C168.05 32.03 169.12 32.42 169.88 32.89C170.64 33.36 171.09 34.57 170.88 35.58C170.65 36.68 169.3 37.66 167.5 38.01C165.85 38.34 163.82 38.98 163 39.42C161.89 40.01 162.86 40.84 166.75 42.61C169.64 43.93 173.13 46.13 174.5 47.5C176.45 49.45 177.01 51.05 177.04 54.75C177.07 57.85 176.46 60.3 175.29 61.8C174.31 63.06 171.7 64.52 169.5 65.03C167.3 65.54 163.59 65.96 161.25 65.98C158.78 65.99 156.37 65.37 155.5 64.5C154.68 63.67 154.22 62.33 154.5 61.5C154.89 60.34 156.67 60.01 162.25 60.04C166.91 60.07 169.95 59.63 170.77 58.79C171.48 58.08 171.93 56.16 171.77 54.53C171.58 52.41 170.5 50.9 168 49.25C165.69 47.73 163.05 46.95 160.25 46.97C157.11 46.99 155.83 46.54 155.33 45.25C154.95 44.25 155.49 42.01 156.58 40.03C157.64 38.11 160.3 35.53 162.5 34.29C164.7 33.05 166.95 32.03 167.5 32.03ZM273.4 33.71C274.47 34.17 274.65 36.37 274.24 43.9C273.96 49.18 273.67 55.61 273.61 58.19C273.55 60.78 272.95 63.48 272.29 64.19C271.59 64.95 270.42 65.18 269.54 64.75C268.56 64.27 268 62.63 267.99 60.25C267.99 58.19 268.51 51.78 269.16 46C269.8 40.22 270.71 34.96 271.18 34.31C271.65 33.65 272.65 33.38 273.4 33.71ZM228.98 43C230.28 43 231.15 43.8 231.42 45.25C231.66 46.49 231.54 48.1 231.17 48.83C230.8 49.55 229.6 50 228.51 49.83C227.42 49.65 226.37 48.6 226.19 47.5C226.01 46.4 226.11 44.94 226.41 44.25C226.71 43.56 227.86 43 228.98 43ZM255.89 45.31C256.98 45.96 257.4 47.5 257.25 50.37C257.09 53.49 257.59 55.05 259.27 56.73C260.71 58.17 261.23 59.51 260.75 60.48C260.34 61.32 259.21 62.02 258.25 62.04C257.29 62.07 255.94 61.39 255.25 60.54C254.14 59.18 253.63 59.28 250.75 61.51C248.96 62.89 245.7 64.29 243.5 64.61C240.47 65.06 238.92 64.76 237.11 63.35C235.24 61.9 234.87 60.91 235.36 58.75C235.71 57.24 237.01 55.12 238.25 54.06C239.49 52.99 242.28 50.62 244.45 48.81C246.63 46.99 249.73 45.25 251.36 44.93C252.98 44.62 255.02 44.79 255.89 45.31ZM243.09 58.78C244.41 58.94 246.12 58.49 246.87 57.78C247.62 57.08 248.83 55.26 249.54 53.75C250.26 52.24 250.74 51 250.61 51C250.48 51 248.19 52.69 245.53 54.75C241.07 58.2 240.87 58.52 243.09 58.78ZM195.4 46C198.03 46.34 199.87 47.31 201.09 49C202.15 50.46 202.71 52.54 202.44 54C202.19 55.38 200.75 57.79 199.24 59.37C197.73 60.94 195.49 62.63 194.25 63.12C193.01 63.6 190.2 64 188 64C185.07 64 183.33 63.33 181.5 61.5C179.43 59.43 179.1 58.36 179.58 55.25C179.9 53.19 181.27 50.29 182.63 48.8C184.11 47.19 186.38 45.99 188.3 45.8C190.06 45.64 193.25 45.73 195.4 46ZM185.03 55.75C185.01 57.36 185.71 58.14 187.5 58.5C188.88 58.77 190.79 58.71 191.75 58.35C192.71 57.99 194.3 56.98 195.28 56.1C196.26 55.22 197.05 53.71 197.03 52.75C197.01 51.48 196.18 51 194 51C192.35 51 190.44 50.8 189.75 50.56C189.06 50.31 187.73 50.88 186.78 51.81C185.83 52.74 185.04 54.51 185.03 55.75ZM212.68 45C213.96 45 215.31 45.78 215.68 46.75C216.12 47.86 215.84 48.66 214.93 48.93C214.14 49.17 212.49 50.4 211.25 51.68C209.93 53.04 209 55.24 209 57C209 59.97 209.06 60 214.5 60C217.91 60 220.23 60.48 220.61 61.25C220.95 61.94 220.48 63.17 219.58 64C218.54 64.94 215.94 65.5 212.57 65.5C208.6 65.5 206.67 64.98 205.08 63.5C203.87 62.37 202.95 60.3 202.97 58.75C202.99 57.24 203.48 54.76 204.06 53.25C204.65 51.74 206.31 49.26 207.75 47.75C209.19 46.24 211.41 45 212.68 45ZM228.7 52C229.41 52 230.22 52.67 230.5 53.5C230.78 54.33 231 57.25 231 60C231 63.56 230.57 65.14 229.5 65.5C228.68 65.78 227.3 65.44 226.46 64.75C225.53 64 224.85 61.69 224.76 58.95C224.66 56.12 225.13 53.95 226 53.2C226.77 52.54 227.99 52 228.7 52ZM97.81 54.19C99.22 54.47 99.5 55.79 99.5 62.01C99.5 68.83 99.32 69.5 97.5 69.5C95.75 69.5 95.46 68.72 95.15 63.11C94.95 59.59 95.09 56.07 95.46 55.28C95.82 54.5 96.88 54 97.81 54.19ZM71.05 55C72.12 55 73 55.67 73 56.5C73 57.33 73 59.8 73 62C73 64.2 73 66.45 73 67C73 67.55 71.76 67.89 70.25 67.75C67.56 67.51 67.51 67.37 67.86 62C68.05 58.98 68.41 56.16 68.66 55.75C68.9 55.34 69.98 55 71.05 55ZM172.85 75.2C174.21 75.47 174.63 77.48 175.25 86.51C175.66 92.56 176.44 98.51 177 99.75C177.55 100.99 178 102.9 178 104C178 105.33 177.33 106 176 106C174.67 106 173.5 104.83 172.5 102.5C171.68 100.58 171 98.1 171 97C171 95.9 170.55 95 170 95C169.45 95 168.78 96.13 168.5 97.5C168.13 99.37 167.37 100 165.5 100C163.76 100 162.4 99.02 161 96.75C159.67 94.58 159.01 94.08 159 95.25C159 96.21 158.44 98.14 157.75 99.53C157.06 100.92 155.94 102.04 155.25 102.03C154.56 102.01 153.74 101.44 153.43 100.75C153.11 100.06 153.6 96.13 154.5 92C155.41 87.88 156.34 83.49 156.58 82.25C156.88 80.62 157.61 80.07 159.21 80.25C160.96 80.45 161.75 81.64 163 86C163.87 89.03 164.84 91.05 165.16 90.5C165.47 89.95 166.53 87.03 167.5 84C168.47 80.97 169.7 77.69 170.24 76.69C170.77 75.69 171.95 75.02 172.85 75.2ZM218.9 78.27C220.16 79.05 220.42 81.02 220.25 88.37C220.13 93.39 220.44 98.17 220.95 99C221.5 99.91 221.5 101.19 220.93 102.25C220.42 103.21 218.54 104.9 216.75 106C214.96 107.09 212.04 107.99 210.25 108C208.33 108 206.18 107.18 205 106C203.47 104.47 203.15 103.23 203.63 100.75C203.97 98.96 205.21 95.7 206.39 93.5C208.13 90.23 209.12 89.45 215 89L214.8 83.58C214.66 79.74 215 78.04 215.97 77.73C216.73 77.48 218.05 77.73 218.9 78.27ZM209.58 99.25C209.07 101.67 209.3 102 211.5 102C212.88 102 214.22 101.55 214.5 101C214.78 100.45 214.85 98.65 214.66 97C214.47 95.35 213.84 94 213.27 94C212.69 94 211.76 94.56 211.2 95.25C210.63 95.94 209.9 97.74 209.58 99.25ZM232.4 81.2C234 81.43 234.5 82.22 234.5 84.49C234.5 86.56 233.97 87.55 232.75 87.74C231.79 87.88 230.55 87.1 230 86C229.45 84.9 229.29 83.3 229.65 82.45C230.02 81.57 231.22 81.03 232.4 81.2ZM111 83.01C111.28 82.95 112.17 83.63 113 84.51C114.34 85.94 114.29 86.31 112.5 87.97C111.4 88.99 106.67 92.38 93.5 101.18L83.5 100.81C76.11 100.54 72.47 99.92 69.57 98.47C67.41 97.39 65.16 95.73 64.57 94.78C63.85 93.63 63.83 92.69 64.5 91.96C65.22 91.17 66.77 91.47 70 93.04C73.11 94.55 77.12 95.38 91.5 96.22L101 89.66C106.22 86.06 110.72 83.06 111 83.01ZM259 82.96C260.37 82.93 261.99 83.49 262.59 84.21C263.19 84.92 264.31 88.88 265.07 93C265.95 97.72 267.31 101.52 268.73 103.25C269.98 104.76 270.77 106.45 270.5 107C270.23 107.55 269.21 108.01 268.25 108.03C267.29 108.04 265.52 107.03 264.32 105.78C263.13 104.52 261.89 102.26 261.57 100.75C261.26 99.24 260.66 97.99 260.25 97.97C259.84 97.96 258.82 99.08 258 100.47C257.18 101.86 255.49 103.44 254.25 104C253.01 104.55 250.65 105 249 105C247.35 105 245.1 104.55 244 104C242.52 103.26 242.01 102.02 242.03 99.25C242.05 96.86 242.96 94.28 244.54 92.14C245.9 90.3 249.15 87.49 251.76 85.89C254.36 84.3 257.62 82.98 259 82.96ZM248.98 95.27C247.89 96.77 247 98.45 247 99C247 99.55 248.01 100.01 249.25 100.03C250.49 100.05 252.24 99.26 253.15 98.28C254.06 97.3 255.22 94.81 255.74 92.75C256.26 90.69 256.64 89 256.59 89.01C256.54 89.01 255.25 89.81 253.73 90.78C252.2 91.75 250.06 93.77 248.98 95.27ZM190.92 85.98C193.44 85.97 196.07 86.54 196.77 87.23C197.46 87.93 198.03 89.29 198.02 90.25C198.01 91.21 196.31 93.4 194.25 95.11C191.88 97.08 189.68 98.09 188.27 97.86C186.68 97.6 186.03 98 186.02 99.25C186 100.69 186.67 100.92 189.75 100.55C191.81 100.31 194.63 99.97 196 99.8C197.93 99.57 198.5 99.95 198.5 101.5C198.5 102.79 197.25 104.12 195 105.25C193.07 106.21 190.15 107 188.5 107.01C186.85 107.01 184.42 106.22 183.11 105.26C180.9 103.64 180.76 103 181.25 97.28C181.65 92.75 182.41 90.38 184.07 88.53C185.86 86.53 187.29 86 190.92 85.98ZM231.48 95C232.31 95 233.3 95.56 233.67 96.25C234.04 96.94 234.45 99.53 234.58 102C234.72 104.47 234.53 107.1 234.16 107.82C233.8 108.55 232.6 109 231.5 108.81C229.85 108.54 229.43 107.53 229.09 103.11C228.86 100.16 228.96 97.12 229.31 96.37C229.66 95.62 230.64 95 231.48 95Z" />
	</g>
</svg>