<?xml version="1.0" encoding="UTF-8" standalone="no"?>
<svg
   xmlns:dc="http://purl.org/dc/elements/1.1/"
   xmlns:cc="http://creativecommons.org/ns#"
   xmlns:rdf="http://www.w3.org/1999/02/22-rdf-syntax-ns#"
   xmlns:svg="http://www.w3.org/2000/svg"
   xmlns="http://www.w3.org/2000/svg"
   viewBox="0 0 310 160"
   width="310"
   height="160"
   version="1.1"
   id="svg895">
  <metadata
     id="metadata901">
    <rdf:RDF>
      <cc:Work
         rdf:about="">
        <dc:format>image/svg+xml</dc:format>
        <dc:type
           rdf:resource="http://purl.org/dc/dcmitype/StillImage" />
        <dc:title></dc:title>
      </cc:Work>
    </rdf:RDF>
  </metadata>
  <defs
     id="defs899" />
  <style
     id="style886">
		tspan { white-space:pre }
		.shp0 { fill: #6f5127 } 
		.shp1 { fill: #747474 } 
		.shp2 { fill: #000000 } 
		.shp3 { fill: #010101 } 
	</style>
  <path
     id="Path 0"
     class="shp0"
     d="M77.64 60.35C75.66 60.52 75.07 63.72 75.04 64.7C75.02 65.69 75.46 68.08 76.02 70C76.59 71.92 77.88 74.4 78.9 75.5C79.93 76.6 81.32 79.3 82.01 81.5C82.69 83.7 84.12 87.53 85.17 90C86.22 92.47 87.96 96.19 89.04 98.25C90.12 100.31 90.99 102.79 90.98 103.75C90.97 104.71 91.63 106.4 92.45 107.5C93.27 108.6 93.94 110.17 93.94 111C93.95 111.83 95.68 115.88 97.79 120C99.91 124.13 101.49 128.06 101.32 128.75C101.14 129.44 101.45 130.9 102 132C102.64 133.27 104 134 105.75 134C107.26 134 110.97 133.09 114 131.98C117.03 130.86 120.52 128.95 121.78 127.72C123.03 126.5 124.04 124.83 124.02 124C124.01 123.17 122.89 120.25 121.54 117.5C120.2 114.75 118.78 111.6 118.4 110.5C118.02 109.4 117.77 107.49 117.85 106.25C117.93 105.01 115.98 100.74 113.52 96.75C111.06 92.76 109.05 88.83 109.07 88C109.08 87.17 108.37 85.83 107.5 85C106.63 84.17 105.93 82.38 105.96 81C105.98 79.63 105.1 76.03 104 73C102.9 69.97 102 66.71 102 65.75C102 64.79 99.93 63.4 99.5 61.5C98 54.82 96.24 57.51 91.4 57.62C88.27 57.69 84.39 58.93 82.9 58.53C80.74 57.94 81.4 60.02 77.64 60.35Z" />
  <path
     id="path889"
     class="shp1"
     d="M104.54 24.7C104.1 25.08 101.88 25.27 99.61 25.11C97.33 24.95 91.65 25.35 86.98 25.99C82.32 26.62 76.92 27.54 75 28.02C73.08 28.5 69.81 30.04 67.75 31.45C65.69 32.85 62.54 34.3 60.75 34.66C58.96 35.02 56.6 35.88 55.5 36.57C54.4 37.25 49.9 38.09 45.5 38.43C39.28 38.91 37.05 39.5 35.5 41.1C33.81 42.84 33.6 43.95 34.17 48.33C34.56 51.31 35.74 54.56 36.95 56C38.11 57.38 39.72 59.96 40.53 61.75C41.34 63.54 42.56 65.24 43.25 65.54C43.94 65.84 46.52 65.24 49 64.2C51.48 63.17 54.23 61.23 55.11 59.91C56 58.58 57.01 56.04 57.36 54.25C57.97 51.16 58.22 51 62.5 51C66.5 51 67.06 51.28 67.5 53.5C67.78 54.88 68.79 56.31 69.75 56.69C70.71 57.07 71.28 59.88 71.83 60.68C72.69 61.93 74.43 60.1 80 59C83.58 58.3 86.93 57.33 87.45 56.86C87.97 56.39 89.43 56 90.7 56C91.96 56 93.25 55.44 93.55 54.75C93.86 54.06 92.96 50.8 91.55 47.5C90.14 44.2 89.11 41.45 89.25 41.39C89.39 41.32 90.4 40.8 91.5 40.22C92.6 39.64 95.53 38.5 98 37.67C100.47 36.85 104.41 35.91 106.75 35.59C109.09 35.27 111.34 34.36 111.75 33.57C112.19 32.74 114.39 32.01 117 31.82C120.73 31.55 121.5 31.16 121.5 29.5C121.5 27.86 120.67 27.41 116.81 27C114.23 26.73 111.53 25.93 110.81 25.23C110.09 24.54 108.56 23.97 107.42 23.98C106.27 23.99 104.98 24.31 104.54 24.7Z" />
  <path
     id="path891"
     fill-rule="evenodd"
     class="shp2"
     d="M102 22.21C115.36 22.57 116.89 22.81 121.5 25.24C124.25 26.7 127.31 28.7 128.3 29.7C129.29 30.69 129.96 32.4 129.79 33.5C129.51 35.26 128.63 35.52 122.49 35.69C118.64 35.79 112.8 36.34 109.5 36.9C106.2 37.47 101.36 38.85 98.75 39.97C96.14 41.09 93.74 42.56 93.43 43.25C93.12 43.94 94.69 47.54 96.93 51.25C99.17 54.96 103.02 62.39 105.48 67.75C107.94 73.11 109.97 78.29 109.98 79.25C109.99 80.21 111.59 84.94 113.54 89.75C115.49 94.56 117.69 99.17 118.43 100C119.17 100.83 120.3 103.97 120.95 107C121.59 110.03 122.52 112.95 123.02 113.5C123.52 114.05 124.84 116.97 125.97 120C127.09 123.03 128 126.29 128 127.25C128 128.22 126.77 129.51 125.25 130.13C123.74 130.76 119.13 132.6 115 134.24C110.88 135.88 106.38 137.43 105 137.69C103.39 138 101.88 137.52 100.75 136.34C99.79 135.33 98.34 131.35 97.53 127.5C96.72 123.65 94.88 117.8 93.44 114.5C92 111.2 90.24 107.83 89.52 107C88.8 106.17 86.98 102.35 85.48 98.5C83.97 94.65 80.32 86.1 77.35 79.5C74.39 72.9 70.51 64.69 68.73 61.26C66.96 57.83 64.94 54.79 64.25 54.51C63.56 54.23 62.44 54.22 61.75 54.48C61.06 54.75 60.2 56.21 59.84 57.73C59.47 59.26 58.08 61.63 56.74 63C55.4 64.38 51.65 66.34 48.4 67.36C43.32 68.96 42.19 69.03 40.27 67.86C38.95 67.06 37.16 64.04 35.9 60.5C34.73 57.2 32.89 52.02 31.82 49C30.74 45.98 30.01 42.38 30.18 41.01C30.39 39.41 31.58 37.98 33.5 37.04C35.15 36.23 40.1 35.41 44.5 35.22C48.9 35.02 53.96 34.22 55.75 33.43C57.54 32.65 59 31.55 59 31C59 30.45 60.46 29.72 62.25 29.38C64.04 29.04 66.85 28.08 68.5 27.25C70.15 26.41 74.65 25.31 78.5 24.79C82.35 24.27 85.95 23.4 86.5 22.84C87.12 22.22 93.03 21.98 102 22.21ZM81 28.95C76.88 29.58 72.49 30.75 71.25 31.55C70.01 32.35 68.12 33 67.04 33C65.96 33 63.94 33.9 62.54 35C61.14 36.1 59.61 37 59.13 37C58.66 37 57.64 37.69 56.88 38.53C55.78 39.75 54.17 39.93 49 39.41C44.08 38.92 41.59 39.16 38.75 40.38C36.69 41.27 35 42.67 35 43.5C35 44.33 35.98 47.59 37.18 50.75C38.37 53.91 39.95 57.63 40.67 59C41.39 60.38 41.99 62.06 41.99 62.75C42 63.44 42.45 64 43 64C43.55 64 45.87 63.21 48.15 62.25C50.44 61.29 53.14 59.26 54.15 57.75C55.17 56.24 56 54.1 56 53C56 51.53 56.86 50.85 59.25 50.42C61.04 50.1 63.85 49.99 65.49 50.17C67.95 50.44 68.88 51.34 70.74 55.25L73 60C83.46 56.81 87.76 55.57 89.3 55.19C90.84 54.81 92.08 54.16 92.05 53.75C92.02 53.34 92 52.33 92 51.5C92 50.67 90.86 48.76 89.47 47.25C88.07 45.74 86.94 43.83 86.96 43C86.97 42.17 87.77 40.8 88.74 39.93C89.71 39.07 92.75 37.37 95.5 36.15C98.25 34.93 103.42 33.48 107 32.93C110.58 32.37 115.07 31.68 117 31.38L120.49 30.84C114 26.86 111.83 26.54 101.82 26.4C95.4 26.31 89.77 26.6 89.32 27.03C88.87 27.46 85.13 28.33 81 28.95ZM80.5 62.67C77.02 63.42 76.54 63.86 76.78 66.02C76.94 67.38 79.45 73.67 82.36 80C85.28 86.33 88.46 93.53 89.44 96C90.41 98.47 91.86 101.63 92.65 103C93.45 104.38 95.4 108.2 96.99 111.5C98.59 114.8 100.61 120.88 101.5 125C102.38 129.13 103.2 132.64 103.3 132.81C103.41 132.99 107.1 131.93 111.5 130.46C115.9 128.99 120.29 127.38 121.25 126.89C122.83 126.08 122.87 125.6 121.65 121.75C120.91 119.41 119.61 116.38 118.77 115C117.93 113.63 116.96 111.04 116.62 109.25C116.28 107.46 114.24 102.29 112.09 97.75C109.94 93.21 107.47 87.36 106.59 84.75C105.72 82.14 105 79.33 105 78.5C105 77.67 103.47 73.96 101.61 70.25C99.74 66.54 97.94 62.49 97.61 61.25C97.13 59.48 96.3 59.01 93.75 59.06C91.96 59.1 89.15 59.73 87.5 60.47C85.85 61.2 82.7 62.19 80.5 62.67Z"
     style="stroke-width:1.88976378;stroke-miterlimit:4;stroke-dasharray:none;stroke:#000000;stroke-opacity:1" />
  <path
     id="path893"
     fill-rule="evenodd"
     class="shp3"
     d="m 215.11024,26.993808 c 1.44681,0.26596 2.15285,2.482292 4.20154,18.639351 l 8.68086,-0.03325 c 5.49788,-0.01108 9.21329,0.487593 10.15083,1.374126 0.86808,0.842206 1.45838,4.199949 1.44681,8.333408 -0.0232,6.261138 -0.32409,7.14767 -3.20614,9.175614 -1.74774,1.241146 -3.97005,2.238495 -4.91915,2.216332 -0.94911,-0.03324 -2.9052,0.698144 -4.34044,1.617922 -1.43523,0.919778 -3.64596,1.429534 -4.91915,1.119248 -1.2732,-0.310287 -3.61124,-2.050107 -5.20852,-3.878581 -2.55796,-2.93664 -2.9052,-4.388337 -2.9515,-12.466867 -0.0347,-5.031073 -0.48612,-12.633092 -0.9954,-16.899531 -0.52085,-4.266439 -0.6829,-8.156101 -0.38196,-8.654776 0.30094,-0.487593 1.40051,-0.731389 2.44222,-0.543001 z m 4.75711,29.975889 c -0.0116,1.983617 0.64817,4.532399 1.44681,5.67381 1.16903,1.651167 1.94452,1.828473 3.78486,0.897614 1.27319,-0.642736 3.75013,-1.451697 5.49788,-1.795229 2.9052,-0.565164 3.18298,-1.052757 3.18298,-5.60732 0,-4.887011 -0.0694,-4.986746 -3.7617,-4.975665 -2.07184,0.01108 -5.45159,-0.321368 -7.52342,-0.731389 -3.15983,-0.620573 -3.66911,-0.443267 -3.18298,1.097084 0.32408,1.008431 0.56715,3.457478 0.55557,5.441095 z M 186.47496,31.204839 c 1.19217,0 2.39592,0.376776 2.68528,0.831124 0.28936,0.454348 -1.05328,4.576725 -2.97464,9.142369 -1.92137,4.576726 -3.9469,8.809919 -4.4909,9.419411 -0.55558,0.609491 -1.16903,4.100214 -1.36579,7.757161 -0.32409,5.795708 -0.67132,6.648996 -2.68528,6.648996 -1.50469,0 -3.5418,-1.850637 -5.78725,-5.241625 -1.90979,-2.881231 -3.72698,-5.252706 -4.05107,-5.263788 -0.32408,-0.01108 -2.14128,2.27174 -4.05107,5.064318 -2.52324,3.690193 -4.10894,4.975665 -5.78724,4.698624 -1.71302,-0.26596 -2.68528,-1.806311 -3.71541,-5.906525 -0.77549,-3.047456 -1.56256,-9.785105 -1.73617,-14.96024 -0.31252,-8.765593 -0.17362,-9.419411 1.96766,-9.419411 1.26162,0 2.40749,0.742472 2.53481,1.662249 0.12732,0.919778 0.57873,6.150321 1.75932,21.609236 l 2.24545,-2.770414 c 1.23847,-1.518188 2.15286,-3.579376 2.03711,-4.576726 -0.11574,-0.986268 0.64817,-2.360393 1.68988,-3.047456 1.0417,-0.675981 2.68528,-0.986268 3.63439,-0.687063 0.9491,0.299205 2.59268,2.426883 5.5326,8.865328 l 3.66911,-7.203079 c 2.02554,-3.967234 4.36358,-9.319676 5.19695,-11.912784 1.088,-3.346661 2.15285,-4.709705 3.69226,-4.709705 z m 12.87083,11.103822 c 1.11115,-0.01108 3.33345,0.476512 4.91915,1.086003 2.11814,0.808961 3.09039,2.216332 3.62282,5.263788 0.39353,2.282822 0.26621,4.842686 -0.28936,5.684892 -0.55558,0.842206 -3.4955,2.216332 -6.51644,3.047456 -4.20154,1.163574 -5.49788,2.039025 -5.49788,3.734519 0,1.218983 0.78706,2.460129 1.73617,2.770415 0.94911,0.310287 2.93992,0.554083 4.39831,0.554083 1.46996,0 3.15983,-0.520838 3.76171,-1.152493 0.75234,-0.786797 1.65515,-0.587327 2.83574,0.653818 1.34264,1.385208 1.43524,2.216332 0.41669,3.645866 -1.01856,1.429534 -2.83575,1.773066 -8.10214,1.540351 -4.80342,-0.210551 -7.23406,-0.853288 -8.32206,-2.216332 -1.14587,-1.429534 -1.34264,-4.288602 -0.76392,-11.336538 0.62503,-7.812569 1.1806,-9.740778 3.26401,-11.336537 1.37736,-1.052758 3.42605,-1.928209 4.5372,-1.939291 z m 0.86808,10.505414 c 1.35422,-0.321369 2.3149,-1.473861 2.3149,-2.770415 0,-1.473861 -0.77549,-2.216332 -2.3149,-2.216332 -1.70145,0 -2.31489,0.742471 -2.31489,2.770415 0,2.216332 0.46298,2.659598 2.31489,2.216332 z m -21.43594,26.041899 c 0.97225,0 3.19455,1.828474 4.9423,4.066969 1.74775,2.249577 5.18537,5.862198 7.62759,8.034204 2.78945,2.482291 5.60205,3.967234 7.52341,3.967234 2.73158,0 3.02094,0.354613 2.55796,3.136109 -0.37038,2.30499 0.46298,4.35509 3.18299,7.75716 2.62741,3.28017 3.36817,5.01999 2.54639,6.00626 -0.6366,0.76464 -1.80562,1.14141 -2.60426,0.83113 -0.79864,-0.29921 -2.3149,-1.91713 -3.36818,-3.60154 -1.06485,-1.67333 -3.14826,-4.19995 -4.62979,-5.60732 -2.43065,-2.29391 -3.46078,-2.49338 -17.17654,-1.31872 l 0.0463,4.7097 c 0.0347,2.59311 -0.61345,5.34136 -1.44681,6.106 -1.20375,1.13033 -1.8172,1.03059 -3.15984,-0.55408 -1.34264,-1.55144 -1.55098,-4.54348 -1.0417,-14.694284 0.35881,-7.014691 1.22689,-14.118035 1.94451,-15.791365 0.71762,-1.673331 2.08341,-3.047457 3.05567,-3.047457 z m 2.33804,18.284739 c 0.94911,-0.310287 3.04409,-0.554083 4.6298,-0.554083 h 2.89362 c -5.83354,-6.914956 -7.91695,-8.909655 -8.3915,-8.898573 -0.47456,0.02216 -0.86809,2.282822 -0.86809,5.019992 0,3.945071 0.35881,4.87593 1.73617,4.432664 z m 76.97034,-11.580335 c 0.9491,-0.04433 2.39591,0.543002 3.20613,1.307636 0.79864,0.775716 1.45838,3.280171 1.44681,5.562993 -0.0116,2.371475 -1.51626,7.014691 -3.4955,10.804623 -1.90979,3.65694 -4.38673,6.95928 -5.49788,7.34714 -1.11115,0.37677 -3.19456,0.13298 -7.23405,-1.80631 l 0.28936,11.58033 c 0.16204,6.63791 -0.20834,12.06793 -0.86809,12.69958 -0.63659,0.60949 -1.78247,0.76464 -2.53481,0.33245 -0.97225,-0.55408 -1.42366,-6.75981 -1.55098,-21.28787 -0.12732,-15.868934 0.18519,-20.78919 1.38894,-21.797621 0.84494,-0.709227 4.14367,-2.050107 7.32665,-2.969885 3.18298,-0.919778 6.57431,-1.717657 7.52342,-1.773066 z m -11.30828,14.439403 c -0.31251,5.984099 -0.30093,6.006259 2.8126,5.452179 2.28018,-0.39894 3.69226,-1.76199 5.20852,-4.98675 1.14588,-2.437965 2.09498,-5.551911 2.10656,-6.926037 0.0116,-1.374126 -0.37039,-2.460128 -0.84494,-2.40472 -0.47455,0.04433 -2.68528,0.709226 -4.91916,1.473861 -3.88902,1.340881 -4.06264,1.640085 -4.36358,7.391467 z m 33.67018,-14.539138 c 2.02554,-0.03325 4.34043,0.587328 5.13907,1.385208 1.1806,1.152492 1.1806,1.695494 0,2.814741 -0.79864,0.764635 -2.24545,1.119248 -3.19455,0.786798 -0.94911,-0.33245 -2.77788,0.387858 -4.05107,1.595759 -2.3149,2.194169 -2.3149,2.20525 1.15744,2.80366 1.90979,0.33245 4.60665,1.739821 5.98401,3.113946 1.37737,1.374126 2.84733,4.255355 3.26401,6.383035 0.61345,3.09178 0.21991,4.5324 -1.93294,7.08118 -2.51166,2.99205 -3.06724,3.15827 -8.47252,2.48229 -3.18299,-0.38785 -6.16921,-1.3298 -6.63218,-2.09443 -0.47456,-0.75355 -0.6829,-1.8728 -0.46298,-2.48229 0.20834,-0.60949 1.37736,-1.05276 2.58111,-0.98627 1.21532,0.0665 3.7617,0.32137 5.67149,0.55408 2.98622,0.37678 3.51865,0.0443 3.80801,-2.33823 0.18519,-1.55143 -0.57872,-3.63478 -1.73617,-4.74295 -1.1343,-1.086 -3.11354,-1.950369 -4.38673,-1.928206 -1.2732,0.03324 -2.97465,-0.576246 -3.78486,-1.340881 -0.79864,-0.775716 -1.50468,-2.715006 -1.56256,-4.310765 -0.0579,-1.584678 1.03013,-4.211031 2.4075,-5.817871 1.7246,-2.005781 3.65754,-2.925559 6.20392,-2.958804 z m -61.76146,6.33871 c 1.62043,0.365694 4.24784,1.274391 5.83355,2.027943 1.59727,0.742472 3.87745,2.792579 5.08119,4.554562 1.20375,1.750902 2.44222,4.942422 2.75473,7.070102 0.43983,2.9588 0.0579,4.21103 -1.60885,5.28595 -1.19217,0.76463 -5.1738,1.39629 -15.48666,1.36304 v 10.52758 c 0,7.42471 -0.42826,10.67164 -1.44681,11.01517 -0.79864,0.26596 -2.09499,-0.11082 -2.88205,-0.83113 -1.01856,-0.93085 -1.2732,-3.801 -0.84494,-9.62996 0.32409,-4.56564 1.19217,-13.29799 1.92137,-19.3929 0.74076,-6.094914 1.87506,-11.436274 2.54638,-11.868459 0.65975,-0.432185 2.52324,-0.487593 4.13209,-0.121898 z M 217.5756,106.0282 c 0.32409,0.21055 2.82418,0.7868 5.55576,1.28548 l 4.9886,0.90869 c -2.33805,-5.87328 -4.31728,-8.510712 -5.91456,-9.652123 -1.58571,-1.13033 -3.22928,-2.039026 -3.64597,-2.016862 -0.41668,0.01108 -0.93753,2.07227 -1.15744,4.565645 -0.21992,2.49337 -0.15047,4.69862 0.17361,4.90917 z"
     style="stroke:#000000;stroke-width:0.75590551;stroke-miterlimit:4;stroke-dasharray:none;stroke-opacity:1" />
</svg>
