<svg xmlns="http://www.w3.org/2000/svg" viewBox="0 0 310 160" width="310" height="160">
	<style>
		tspan { white-space:pre }
		.shp0 { fill: #6f5127 } 
		.shp1 { fill: #747474 } 
		.shp2 { fill: #000000 } 
		.shp3 { fill: #010101 } 
	</style>
	<path id="Path 0" class="shp0" d="M77.64 60.35C75.66 60.52 75.07 63.72 75.04 64.7C75.02 65.69 75.46 68.08 76.02 70C76.59 71.92 77.88 74.4 78.9 75.5C79.93 76.6 81.32 79.3 82.01 81.5C82.69 83.7 84.12 87.53 85.17 90C86.22 92.47 87.96 96.19 89.04 98.25C90.12 100.31 90.99 102.79 90.98 103.75C90.97 104.71 91.63 106.4 92.45 107.5C93.27 108.6 93.94 110.17 93.94 111C93.95 111.83 95.68 115.88 97.79 120C99.91 124.13 101.49 128.06 101.32 128.75C101.14 129.44 101.45 130.9 102 132C102.64 133.27 104 134 105.75 134C107.26 134 110.97 133.09 114 131.98C117.03 130.86 120.52 128.95 121.78 127.72C123.03 126.5 124.04 124.83 124.02 124C124.01 123.17 122.89 120.25 121.54 117.5C120.2 114.75 118.78 111.6 118.4 110.5C118.02 109.4 117.77 107.49 117.85 106.25C117.93 105.01 115.98 100.74 113.52 96.75C111.06 92.76 109.05 88.83 109.07 88C109.08 87.17 108.37 85.83 107.5 85C106.63 84.17 105.93 82.38 105.96 81C105.98 79.63 105.1 76.03 104 73C102.9 69.97 102 66.71 102 65.75C102 64.79 99.93 63.4 99.5 61.5C98 54.82 96.24 57.51 91.4 57.62C88.27 57.69 84.39 58.93 82.9 58.53C80.74 57.94 81.4 60.02 77.64 60.35Z" />
	<path id="Path 0" class="shp1" d="M104.54 24.7C104.1 25.08 101.88 25.27 99.61 25.11C97.33 24.95 91.65 25.35 86.98 25.99C82.32 26.62 76.92 27.54 75 28.02C73.08 28.5 69.81 30.04 67.75 31.45C65.69 32.85 62.54 34.3 60.75 34.66C58.96 35.02 56.6 35.88 55.5 36.57C54.4 37.25 49.9 38.09 45.5 38.43C39.28 38.91 37.05 39.5 35.5 41.1C33.81 42.84 33.6 43.95 34.17 48.33C34.56 51.31 35.74 54.56 36.95 56C38.11 57.38 39.72 59.96 40.53 61.75C41.34 63.54 42.56 65.24 43.25 65.54C43.94 65.84 46.52 65.24 49 64.2C51.48 63.17 54.23 61.23 55.11 59.91C56 58.58 57.01 56.04 57.36 54.25C57.97 51.16 58.22 51 62.5 51C66.5 51 67.06 51.28 67.5 53.5C67.78 54.88 68.79 56.31 69.75 56.69C70.71 57.07 71.28 59.88 71.83 60.68C72.69 61.93 74.43 60.1 80 59C83.58 58.3 86.93 57.33 87.45 56.86C87.97 56.39 89.43 56 90.7 56C91.96 56 93.25 55.44 93.55 54.75C93.86 54.06 92.96 50.8 91.55 47.5C90.14 44.2 89.11 41.45 89.25 41.39C89.39 41.32 90.4 40.8 91.5 40.22C92.6 39.64 95.53 38.5 98 37.67C100.47 36.85 104.41 35.91 106.75 35.59C109.09 35.27 111.34 34.36 111.75 33.57C112.19 32.74 114.39 32.01 117 31.82C120.73 31.55 121.5 31.16 121.5 29.5C121.5 27.86 120.67 27.41 116.81 27C114.23 26.73 111.53 25.93 110.81 25.23C110.09 24.54 108.56 23.97 107.42 23.98C106.27 23.99 104.98 24.31 104.54 24.7Z" />
	<path id="Path 0" fill-rule="evenodd" class="shp2" d="M102 22.21C115.36 22.57 116.89 22.81 121.5 25.24C124.25 26.7 127.31 28.7 128.3 29.7C129.29 30.69 129.96 32.4 129.79 33.5C129.51 35.26 128.63 35.52 122.49 35.69C118.64 35.79 112.8 36.34 109.5 36.9C106.2 37.47 101.36 38.85 98.75 39.97C96.14 41.09 93.74 42.56 93.43 43.25C93.12 43.94 94.69 47.54 96.93 51.25C99.17 54.96 103.02 62.39 105.48 67.75C107.94 73.11 109.97 78.29 109.98 79.25C109.99 80.21 111.59 84.94 113.54 89.75C115.49 94.56 117.69 99.17 118.43 100C119.17 100.83 120.3 103.97 120.95 107C121.59 110.03 122.52 112.95 123.02 113.5C123.52 114.05 124.84 116.97 125.97 120C127.09 123.03 128 126.29 128 127.25C128 128.22 126.77 129.51 125.25 130.13C123.74 130.76 119.13 132.6 115 134.24C110.88 135.88 106.38 137.43 105 137.69C103.39 138 101.88 137.52 100.75 136.34C99.79 135.33 98.34 131.35 97.53 127.5C96.72 123.65 94.88 117.8 93.44 114.5C92 111.2 90.24 107.83 89.52 107C88.8 106.17 86.98 102.35 85.48 98.5C83.97 94.65 80.32 86.1 77.35 79.5C74.39 72.9 70.51 64.69 68.73 61.26C66.96 57.83 64.94 54.79 64.25 54.51C63.56 54.23 62.44 54.22 61.75 54.48C61.06 54.75 60.2 56.21 59.84 57.73C59.47 59.26 58.08 61.63 56.74 63C55.4 64.38 51.65 66.34 48.4 67.36C43.32 68.96 42.19 69.03 40.27 67.86C38.95 67.06 37.16 64.04 35.9 60.5C34.73 57.2 32.89 52.02 31.82 49C30.74 45.98 30.01 42.38 30.18 41.01C30.39 39.41 31.58 37.98 33.5 37.04C35.15 36.23 40.1 35.41 44.5 35.22C48.9 35.02 53.96 34.22 55.75 33.43C57.54 32.65 59 31.55 59 31C59 30.45 60.46 29.72 62.25 29.38C64.04 29.04 66.85 28.08 68.5 27.25C70.15 26.41 74.65 25.31 78.5 24.79C82.35 24.27 85.95 23.4 86.5 22.84C87.12 22.22 93.03 21.98 102 22.21ZM81 28.95C76.88 29.58 72.49 30.75 71.25 31.55C70.01 32.35 68.12 33 67.04 33C65.96 33 63.94 33.9 62.54 35C61.14 36.1 59.61 37 59.13 37C58.66 37 57.64 37.69 56.88 38.53C55.78 39.75 54.17 39.93 49 39.41C44.08 38.92 41.59 39.16 38.75 40.38C36.69 41.27 35 42.67 35 43.5C35 44.33 35.98 47.59 37.18 50.75C38.37 53.91 39.95 57.63 40.67 59C41.39 60.38 41.99 62.06 41.99 62.75C42 63.44 42.45 64 43 64C43.55 64 45.87 63.21 48.15 62.25C50.44 61.29 53.14 59.26 54.15 57.75C55.17 56.24 56 54.1 56 53C56 51.53 56.86 50.85 59.25 50.42C61.04 50.1 63.85 49.99 65.49 50.17C67.95 50.44 68.88 51.34 70.74 55.25L73 60C83.46 56.81 87.76 55.57 89.3 55.19C90.84 54.81 92.08 54.16 92.05 53.75C92.02 53.34 92 52.33 92 51.5C92 50.67 90.86 48.76 89.47 47.25C88.07 45.74 86.94 43.83 86.96 43C86.97 42.17 87.77 40.8 88.74 39.93C89.71 39.07 92.75 37.37 95.5 36.15C98.25 34.93 103.42 33.48 107 32.93C110.58 32.37 115.07 31.68 117 31.38L120.49 30.84C114 26.86 111.83 26.54 101.82 26.4C95.4 26.31 89.77 26.6 89.32 27.03C88.87 27.46 85.13 28.33 81 28.95ZM80.5 62.67C77.02 63.42 76.54 63.86 76.78 66.02C76.94 67.38 79.45 73.67 82.36 80C85.28 86.33 88.46 93.53 89.44 96C90.41 98.47 91.86 101.63 92.65 103C93.45 104.38 95.4 108.2 96.99 111.5C98.59 114.8 100.61 120.88 101.5 125C102.38 129.13 103.2 132.64 103.3 132.81C103.41 132.99 107.1 131.93 111.5 130.46C115.9 128.99 120.29 127.38 121.25 126.89C122.83 126.08 122.87 125.6 121.65 121.75C120.91 119.41 119.61 116.38 118.77 115C117.93 113.63 116.96 111.04 116.62 109.25C116.28 107.46 114.24 102.29 112.09 97.75C109.94 93.21 107.47 87.36 106.59 84.75C105.72 82.14 105 79.33 105 78.5C105 77.67 103.47 73.96 101.61 70.25C99.74 66.54 97.94 62.49 97.61 61.25C97.13 59.48 96.3 59.01 93.75 59.06C91.96 59.1 89.15 59.73 87.5 60.47C85.85 61.2 82.7 62.19 80.5 62.67Z" />
	<path id="Path 0" fill-rule="evenodd" class="shp3" d="M215.87 32.2C217.12 32.44 217.73 34.44 219.5 49.02L227 48.99C231.75 48.98 234.96 49.43 235.77 50.23C236.52 50.99 237.03 54.02 237.02 57.75C237 63.4 236.74 64.2 234.25 66.03C232.74 67.15 230.82 68.05 230 68.03C229.18 68 227.49 68.66 226.25 69.49C225.01 70.32 223.1 70.78 222 70.5C220.9 70.22 218.88 68.65 217.5 67C215.29 64.35 214.99 63.04 214.95 55.75C214.92 51.21 214.53 44.35 214.09 40.5C213.64 36.65 213.5 33.14 213.76 32.69C214.02 32.25 214.97 32.03 215.87 32.2ZM219.98 59.25C219.97 61.04 220.54 63.34 221.23 64.37C222.24 65.86 222.91 66.02 224.5 65.18C225.6 64.6 227.74 63.87 229.25 63.56C231.76 63.05 232 62.61 232 58.5C232 54.09 231.94 54 228.75 54.01C226.96 54.02 224.04 53.72 222.25 53.35C219.52 52.79 219.08 52.95 219.5 54.34C219.78 55.25 219.99 57.46 219.98 59.25ZM191.13 36C192.16 36 193.2 36.34 193.45 36.75C193.7 37.16 192.54 40.88 190.88 45C189.22 49.13 187.47 52.95 187 53.5C186.52 54.05 185.99 57.2 185.82 60.5C185.54 65.73 185.24 66.5 183.5 66.5C182.2 66.5 180.44 64.83 178.5 61.77C176.85 59.17 175.28 57.03 175 57.02C174.72 57.01 173.15 59.07 171.5 61.59C169.32 64.92 167.95 66.08 166.5 65.83C165.02 65.59 164.18 64.2 163.29 60.5C162.62 57.75 161.94 51.67 161.79 47C161.52 39.09 161.64 38.5 163.49 38.5C164.58 38.5 165.57 39.17 165.68 40C165.79 40.83 166.18 45.55 167.2 59.5L169.14 57C170.21 55.63 171 53.77 170.9 52.87C170.8 51.98 171.46 50.74 172.36 50.12C173.26 49.51 174.68 49.23 175.5 49.5C176.32 49.77 177.74 51.69 180.28 57.5L183.45 51C185.2 47.42 187.22 42.59 187.94 40.25C188.88 37.23 189.8 36 191.13 36ZM202.25 46.02C203.21 46.01 205.13 46.45 206.5 47C208.33 47.73 209.17 49 209.63 51.75C209.97 53.81 209.86 56.12 209.38 56.88C208.9 57.64 206.36 58.88 203.75 59.63C200.12 60.68 199 61.47 199 63C199 64.1 199.68 65.22 200.5 65.5C201.32 65.78 203.04 66 204.3 66C205.57 66 207.03 65.53 207.55 64.96C208.2 64.25 208.98 64.43 210 65.55C211.16 66.8 211.24 67.55 210.36 68.84C209.48 70.13 207.91 70.44 203.36 70.23C199.21 70.04 197.11 69.46 196.17 68.23C195.18 66.94 195.01 64.36 195.51 58C196.05 50.95 196.53 49.21 198.33 47.77C199.52 46.82 201.29 46.03 202.25 46.02ZM203 55.5C204.17 55.21 205 54.17 205 53C205 51.67 204.33 51 203 51C201.53 51 201 51.67 201 53.5C201 55.5 201.4 55.9 203 55.5ZM184.48 79C185.32 79 187.24 80.65 188.75 82.67C190.26 84.7 193.23 87.96 195.34 89.92C197.75 92.16 200.18 93.5 201.84 93.5C204.2 93.5 204.45 93.82 204.05 96.33C203.73 98.41 204.45 100.26 206.8 103.33C209.07 106.29 209.71 107.86 209 108.75C208.45 109.44 207.44 109.78 206.75 109.5C206.06 109.23 204.75 107.77 203.84 106.25C202.92 104.74 201.12 102.46 199.84 101.19C197.74 99.12 196.85 98.94 185 100L185.04 104.25C185.07 106.59 184.51 109.07 183.79 109.76C182.75 110.78 182.22 110.69 181.06 109.26C179.9 107.86 179.72 105.16 180.16 96C180.47 89.67 181.22 83.26 181.84 81.75C182.46 80.24 183.64 79 184.48 79ZM186.5 95.5C187.32 95.22 189.13 95 190.5 95L193 95C187.96 88.76 186.16 86.96 185.75 86.97C185.34 86.99 185 89.03 185 91.5C185 95.06 185.31 95.9 186.5 95.5ZM253 85.05C253.82 85.01 255.07 85.54 255.77 86.23C256.46 86.93 257.03 89.19 257.02 91.25C257.01 93.39 255.71 97.58 254 101C252.35 104.3 250.21 107.28 249.25 107.63C248.29 107.97 246.49 107.75 243 106L243.25 116.45C243.39 122.44 243.07 127.34 242.5 127.91C241.95 128.46 240.96 128.6 240.31 128.21C239.47 127.71 239.08 122.11 238.97 109C238.86 94.68 239.13 90.24 240.17 89.33C240.9 88.69 243.75 87.48 246.5 86.65C249.25 85.82 252.18 85.1 253 85.05ZM243.23 98.08C242.96 103.48 242.97 103.5 245.66 103C247.63 102.64 248.85 101.41 250.16 98.5C251.15 96.3 251.97 93.49 251.98 92.25C251.99 91.01 251.66 90.03 251.25 90.08C250.84 90.12 248.93 90.72 247 91.41C243.64 92.62 243.49 92.89 243.23 98.08ZM272.32 84.96C274.07 84.93 276.07 85.49 276.76 86.21C277.78 87.25 277.78 87.74 276.76 88.75C276.07 89.44 274.82 89.76 274 89.46C273.18 89.16 271.6 89.81 270.5 90.9C268.5 92.88 268.5 92.89 271.5 93.43C273.15 93.73 275.48 95 276.67 96.24C277.86 97.48 279.13 100.08 279.49 102C280.02 104.79 279.68 106.09 277.82 108.39C275.65 111.09 275.17 111.24 270.5 110.63C267.75 110.28 265.17 109.43 264.77 108.74C264.36 108.06 264.18 107.05 264.37 106.5C264.55 105.95 265.56 105.55 266.6 105.61C267.65 105.67 269.85 105.9 271.5 106.11C274.08 106.45 274.54 106.15 274.79 104C274.95 102.6 274.29 100.72 273.29 99.72C272.31 98.74 270.6 97.96 269.5 97.98C268.4 98.01 266.93 97.46 266.23 96.77C265.54 96.07 264.93 94.32 264.88 92.88C264.83 91.45 265.77 89.08 266.96 87.63C268.45 85.82 270.12 84.99 272.32 84.96ZM218.96 90.68C220.36 91.01 222.63 91.83 224 92.51C225.38 93.18 227.35 95.03 228.39 96.62C229.43 98.2 230.5 101.08 230.77 103C231.15 105.67 230.82 106.8 229.38 107.77C228.35 108.46 224.91 109.03 216 109L216 118.5C216 125.2 215.63 128.13 214.75 128.44C214.06 128.68 212.94 128.34 212.26 127.69C211.38 126.85 211.16 124.26 211.53 119C211.81 114.88 212.56 107 213.19 101.5C213.83 96 214.81 91.18 215.39 90.79C215.96 90.4 217.57 90.35 218.96 90.68ZM218 103.52C218.28 103.71 220.44 104.23 222.8 104.68L227.11 105.5C225.09 100.2 223.38 97.82 222 96.79C220.63 95.77 219.21 94.95 218.85 94.97C218.49 94.98 218.04 96.84 217.85 99.09C217.66 101.34 217.72 103.33 218 103.52Z" />
</svg>