<svg xmlns="http://www.w3.org/2000/svg" viewBox="0 0 312 163" width="312" height="163">
	<style>
		tspan { white-space:pre }
		.shp0 { fill: #72b542 } 
		.shp1 { opacity: 0.992;fill: #564500 } 
		.shp2 { opacity: 0.992;fill: #ffffff } 
		.shp3 { opacity: 0.992;fill: #000000 } 
		.shp4 { fill: #ffde56 } 
		.shp5 { fill: #574600 } 
		.shp6 { fill: #b59200 } 
		.shp7 { fill: #000000 } 
		.shp8 { opacity: 0.996;fill: #000000 } 
	</style>
	<g >
		<path class="shp0" d="M77.5 22.93C73.65 23.26 69.38 24.17 68 24.95C66.63 25.73 63.92 27.95 62 29.88C60.08 31.81 56.25 34.67 53.5 36.24C50.75 37.82 45.24 42.57 41.25 46.8C36.72 51.61 33.65 55.81 33.07 58C32.56 59.92 31.64 67.13 31.03 74C30.42 80.88 30.23 90.78 30.6 96C30.97 101.22 31.85 106.63 32.55 108C33.25 109.38 35.21 112.08 36.91 114C38.6 115.92 41.22 118.85 42.72 120.5C44.22 122.15 47.03 124.37 48.97 125.43C50.91 126.49 54.52 127.68 57 128.08C59.48 128.47 64.2 129.41 67.5 130.15C71.31 131.01 79.51 131.47 90 131.43C105.74 131.36 106.73 131.23 111.5 128.75C114.25 127.33 119.53 123.31 123.22 119.83C126.92 116.35 129.96 112.94 129.97 112.25C129.99 111.56 131.13 108.53 132.5 105.5C133.88 102.47 135.65 99.66 136.45 99.25C137.25 98.84 138.61 96.47 139.47 94C140.53 90.96 141.02 86.09 140.99 79C140.95 71.82 140.48 67.71 139.5 66C138.71 64.63 138.05 61.81 138.04 59.75C138.02 57.69 137.38 54.76 136.61 53.25C135.85 51.74 133.94 49.03 132.36 47.24C130.79 45.45 129.05 44 128.5 44.02C127.95 44.04 124.46 41.12 120.75 37.53C115.99 32.93 111.34 29.67 105 26.5C97.19 22.6 95.24 22.02 90.25 22.16C87.09 22.25 81.35 22.59 77.5 22.93Z" />
		<path class="shp0" d="M185 -13" />
		<g >
			<path class="shp1" d="M64.48 37.5C64.21 38.33 64.22 39.45 64.5 40C64.78 40.55 67.47 42.58 70.5 44.5C73.53 46.42 76.22 48.45 76.5 49C76.78 49.55 77.9 50 79 50C80.48 50 80.94 49.42 80.75 47.75C80.59 46.28 78.24 43.86 73.94 40.75C70.33 38.14 66.83 36 66.17 36C65.5 36 64.74 36.67 64.48 37.5ZM98 40.03C96.08 40.47 92.7 41.5 90.5 42.32C88.3 43.14 86.39 44.53 86.25 45.4C86.11 46.28 86.56 47.26 87.25 47.58C87.94 47.9 91.42 47.25 95 46.14C98.58 45.02 103.19 43.86 105.25 43.56C108.15 43.13 109 42.55 109 41C109 39.34 108.37 39.02 105.25 39.11C103.19 39.18 99.92 39.59 98 40.03Z" />
			<path class="shp2" d="M57.99 54.25C56.9 56.04 56 58.63 55.99 60C55.98 61.38 56.54 63.07 57.23 63.77C57.93 64.46 59.74 65.03 61.25 65.02C63.08 65.01 64.68 64.08 66.03 62.25C67.15 60.74 68.07 58.38 68.07 57C68.07 55.63 67.26 53.72 66.28 52.78C65.3 51.83 63.48 51.04 62.24 51.03C60.74 51.01 59.3 52.1 57.99 54.25ZM98.5 53.45C97.18 54.8 96.07 56.38 96.05 56.95C96.02 57.53 97.13 59.13 98.5 60.5C99.88 61.88 101.9 63 103 63C104.1 63 106.35 61.54 108 59.75C109.64 57.96 110.99 55.94 111 55.25C111 54.56 110.33 53.33 109.5 52.5C108.67 51.67 106.4 51 104.45 51C102.01 51 100.16 51.76 98.5 53.45Z" />
		</g>
		<path fill-rule="evenodd" class="shp3" d="M84.5 22.03C87.8 22.01 94.55 22.73 99.5 23.63C104.46 24.53 111.08 26.55 114.25 28.13C117.87 29.94 122.83 33.87 127.62 38.75C131.81 43.01 136.09 48.19 137.12 50.25C138.15 52.31 139.9 57.26 141 61.25C142.38 66.22 143 71.57 143 78.25C143 87.31 142.7 88.76 138.82 98.75C136.53 104.66 134.39 109.72 134.07 110C133.76 110.28 132.15 112.1 130.5 114.05C128.85 116.01 126.38 119.12 125 120.97C123.23 123.35 119.43 125.8 101.5 134.36L87 134.79C74.4 135.16 71.58 134.95 65.5 133.13C61.65 131.99 55.58 129.35 52 127.27C48.42 125.2 42.79 120.8 39.47 117.5C36.15 114.2 32.21 109.03 30.72 106C29.23 102.97 27.44 97.91 26.75 94.74C25.74 90.09 25.75 87.67 26.79 82.24C27.49 78.53 28.76 71.45 29.6 66.5C30.45 61.55 31.73 56.83 32.45 56C33.18 55.17 34.67 52.7 35.78 50.5C36.88 48.3 39.52 45.11 41.64 43.41C43.76 41.71 48.2 38.84 51.5 37.02C54.8 35.2 57.78 33.21 58.12 32.6C58.45 32 60.93 30.18 63.62 28.58C66.3 26.97 70.75 24.85 73.5 23.86C76.25 22.88 81.2 22.06 84.5 22.03ZM67 33.35C65.63 34.65 60.95 37.69 56.62 40.1C52.29 42.52 47.02 46.08 44.93 48C42.83 49.92 39.73 54.2 38.03 57.5C36.34 60.8 34.96 64.96 34.97 66.75C34.99 68.54 34.28 73.04 33.4 76.75C32.36 81.12 31.96 85.97 32.27 90.5C32.54 94.35 33.63 99.53 34.71 102C35.79 104.47 38.59 108.75 40.95 111.5C43.3 114.25 48.43 118.53 52.36 121.01C56.29 123.49 61.98 126.32 65 127.31C69.58 128.81 73.09 129.05 86 128.75L101.5 128.39C117.57 120.77 119.15 119.52 124.46 112.91C127.73 108.84 131.26 103.25 132.29 100.5C133.32 97.75 135.08 93.03 136.2 90C137.86 85.48 138.13 82.99 137.68 76C137.38 71.22 136.05 64 134.65 59.5C132.46 52.47 131.31 50.59 125.25 44C120.76 39.11 116.29 35.41 112.43 33.38C109.17 31.66 103.58 29.78 100 29.2C96.42 28.62 90.8 27.89 87.5 27.59C83.03 27.18 79.97 27.54 75.5 29.02C72.2 30.11 68.38 32.06 67 33.35Z" />
		<g >
			<path class="shp4" d="M100.5 16.21C99.4 16.85 97.35 18.52 95.94 19.93C94.54 21.34 93.07 23.4 92.69 24.5C92.28 25.66 92.52 27.04 93.25 27.79C93.94 28.51 94.72 29.08 95 29.08C95.28 29.07 96.74 27.93 98.25 26.53C99.76 25.14 101.9 24 103 24C104.1 24 105.67 24.68 106.5 25.5C107.33 26.32 108 27.23 108 27.5C108 27.77 106.99 27.98 105.75 27.96C104.51 27.93 102.83 28.63 102 29.5C100.64 30.95 100.78 31.01 103.5 30.13C105.9 29.36 107.2 29.57 110 31.18C111.92 32.29 114.53 33.04 115.79 32.85C117.46 32.6 118.61 33.32 120.01 35.5C121.07 37.15 121.95 39.74 121.97 41.25C121.99 42.97 122.66 44.21 123.75 44.57C125.42 45.11 125.42 45.18 123.75 46.07C122.32 46.83 122.1 47.88 122.56 51.75C122.92 54.76 124.34 58.33 126.45 61.5C128.28 64.25 130.35 68.3 131.06 70.5C131.77 72.7 132.94 75.63 133.67 77C134.39 78.38 134.99 80.06 134.99 80.75C135 81.44 135.42 82.79 135.93 83.75C136.44 84.71 137.11 86.29 137.43 87.25C137.82 88.45 138.87 88.92 140.74 88.75C142.59 88.58 143.6 87.85 143.83 86.5C144.02 85.4 143.37 82.03 142.38 79C141.39 75.97 140.68 72.6 140.79 71.5C140.9 70.4 141.29 67.03 141.64 64C142.11 59.94 141.88 57.85 140.76 56C139.92 54.63 138.96 52.26 138.62 50.75C138.28 49.24 136.22 46.09 134.04 43.75C131.86 41.41 130.06 38.94 130.04 38.25C130.02 37.56 129.32 36.77 128.5 36.5C127.67 36.23 126.55 33.98 126 31.5C125.36 28.61 124.46 27 123.5 27C122.67 27 122.01 26.21 122.02 25.25C122.03 24.29 120.57 22.09 118.77 20.37C116.97 18.65 114.49 16.74 113.25 16.12C112.01 15.5 109.09 15.01 106.75 15.03C104.41 15.05 101.6 15.58 100.5 16.21Z" />
			<path class="shp5" d="M85 22C83.63 22.44 79.69 22.85 76.25 22.9C71.51 22.98 70.07 23.33 70.3 24.37C70.47 25.13 69.99 26.48 69.23 27.37C68.37 28.39 66.3 29 63.68 29.01C60.1 29.01 59.25 29.44 57.75 32.01C56.55 34.07 55.22 35 53.5 35C51.67 35 51 35.53 51 37C51 38.47 51.67 39 53.5 39C55 39 56.57 38.1 57.42 36.75C58.2 35.51 60 33.94 61.42 33.25C62.84 32.56 66.7 32 70 32C73.3 32 77.69 32.69 79.75 33.52C81.81 34.36 84.63 35.06 86 35.07C87.49 35.08 89.16 34.16 90.12 32.8C91.46 30.89 92.48 30.55 96.12 30.82C99.18 31.04 100.95 30.65 102 29.52C102.83 28.64 104.51 27.93 105.75 27.96C106.99 27.98 108 27.77 108 27.5C108 27.23 107.33 26.32 106.5 25.5C105.67 24.68 104.1 24 103 24C101.9 24 99.76 25.14 98.25 26.53C96.74 27.93 95.28 29.07 95 29.08C94.72 29.08 93.94 28.51 93.25 27.79C92.56 27.08 92.22 25.71 92.5 24.75C92.84 23.55 92.21 22.68 90.5 22C89.13 21.45 87.89 21.04 87.75 21.1C87.61 21.15 86.38 21.56 85 22Z" />
			<path class="shp4" d="M63 25.14C61.63 25.7 56.67 26.84 52 27.67C47.33 28.5 42.26 29.81 40.75 30.59C39.24 31.37 37.08 32 35.95 32C34.82 32 31.69 34.24 28.95 37C26.23 39.75 24 42.9 24 44C24 45.1 24.9 46.56 26 47.25C27.11 47.94 28 48.95 27.99 49.5C27.98 50.05 28.43 50.95 29 51.5C29.57 52.05 30.16 56.1 30.32 60.5C30.49 65.25 30.05 70.33 29.24 73C28.48 75.47 27.13 78.39 26.23 79.47C25.17 80.75 24.66 83.04 24.77 85.97C24.88 88.88 24.28 91.57 23.09 93.5C22.07 95.15 20.68 98.97 20 102C19.32 105.03 18.11 109.75 17.31 112.5C16.52 115.25 16.01 119.46 16.19 121.85L16.5 126.2C20.84 122.82 22.25 119.69 24.36 112.4C25.93 106.96 27.58 101.6 28.04 100.5C28.75 98.77 28.89 98.9 29.08 101.5C29.2 103.15 29.34 105.39 29.4 106.49C29.46 107.76 30.4 108.66 32 108.99C34.36 109.47 34.52 109.92 34.83 117C35.01 121.13 35.79 126.97 36.57 130C37.36 133.03 38.46 135.95 39.03 136.5C39.71 137.17 40.63 137.13 41.78 136.4C42.95 135.65 43.58 133.73 43.76 130.4C43.9 127.7 43.56 124.94 43.01 124.25C42.45 123.56 42.28 121.99 42.63 120.75C42.98 119.51 44.1 117.26 45.13 115.75C46.16 114.24 47 111.42 47 109.5C47 107.06 46.55 106 45.5 106C44.67 106 44 105.21 44 104.25C44.01 103.29 43.11 100.81 42 98.75C40.9 96.69 39.98 93.99 39.96 92.75C39.93 91.51 40.62 89.83 41.49 89C42.91 87.64 42.98 87.85 42.28 91.15C41.71 93.83 41.9 95.28 43 96.6C43.83 97.59 45 100 45.62 101.95C46.72 105.46 46.74 105.43 47.38 98.5C47.86 93.26 47.65 90.68 46.51 88.25C45.16 85.34 44.61 85.03 41.25 85.25C37.8 85.48 37.48 85.76 37.25 88.75C37.09 90.86 36.47 92 35.5 92C34.45 92 34 90.94 34 88.5C34 86.58 35.9 79.04 38.23 71.75C41.21 62.42 43.36 57.48 45.48 55.05C47.14 53.15 50.62 49.32 53.22 46.55C56.16 43.4 57.96 40.56 57.99 39C58.02 37.02 57.78 36.76 56.82 37.75C56.15 38.44 54.57 39 53.3 39C51.67 39 51 38.42 51 37C51 35.53 51.67 35 53.5 35C55.22 35 56.55 34.07 57.75 32.01C59.25 29.44 60.1 29.01 63.68 29.01C66.02 29 68.55 28.34 69.43 27.5C70.29 26.68 71 25.55 71 25C71 24.45 69.76 24.03 68.25 24.06C66.74 24.1 64.38 24.58 63 25.14Z" />
			<path class="shp5" d="M125.46 29.75C125.86 31.81 126.67 34.4 127.26 35.5C128.12 37.09 128.43 37.19 128.78 36C129.02 35.17 128.8 32.59 128.27 30.25C127.75 27.91 126.74 26 126.02 26C125.06 26 124.92 26.97 125.46 29.75Z" />
			<path class="shp4" d="M127.88 30.5C128.41 32.15 129.11 34.17 129.43 35C129.75 35.83 129.78 34.92 129.48 33C129.18 31.07 128.48 29.05 127.93 28.5C127.25 27.83 127.24 28.49 127.88 30.5Z" />
			<path class="shp5" d="M116.25 32.58C115.37 32.88 115.59 33.66 117.02 35.25C118.25 36.62 119.03 38.87 119.02 41C119.01 43.45 119.45 44.5 120.5 44.5C121.51 44.5 121.99 43.51 121.97 41.5C121.95 39.85 121.15 37.04 120.19 35.25C119.23 33.46 118.23 32.04 117.97 32.08C117.71 32.12 116.94 32.35 116.25 32.58Z" />
			<path class="shp4" d="M115 36C115 37.1 115.45 38.23 116 38.5C116.55 38.77 117.42 40.01 117.94 41.25C118.81 43.36 118.88 43.31 118.9 40.5C118.92 38.85 118.39 36.73 117.72 35.79C117.05 34.85 116.16 34.06 115.75 34.04C115.34 34.02 115 34.9 115 36Z" />
			<path class="shp5" d="M32.47 41.83C31.46 42.83 30.72 44.63 30.82 45.83C30.92 47.02 31.45 48.23 32 48.5C32.55 48.77 33 47.88 33 46.5C33 45.08 33.87 43.46 35 42.75C36.11 42.06 37.01 41.16 37 40.75C37 40.34 36.39 40 35.65 40C34.9 40 33.47 40.82 32.47 41.83ZM47 46.2C46.23 46.86 45.7 47.87 45.83 48.45C45.95 49.03 44.92 50.06 43.53 50.75C42.14 51.44 40.98 52.79 40.96 53.75C40.92 55.32 41.09 55.35 42.66 54C43.62 53.17 45.65 51.15 47.17 49.5C48.7 47.85 49.95 46.16 49.97 45.75C49.99 45.34 49.64 45 49.2 45C48.76 45 47.77 45.54 47 46.2ZM122.98 63.25C122.97 63.94 123.36 64.95 123.84 65.5C124.31 66.05 125.33 68.69 126.1 71.38C126.87 74.06 127.84 76.42 128.25 76.63C128.66 76.83 129.9 78.8 131 81C132.1 83.2 133 86.13 133 87.5C133 88.88 133.73 91.46 134.63 93.25C135.76 95.5 136.09 97.88 135.69 101C135.38 103.47 134.42 106.96 133.56 108.75C132.5 110.96 132.24 113.01 132.75 115.16C133.16 116.89 134.06 118.47 134.75 118.66C135.71 118.92 135.77 118.23 135.02 115.75C134.23 113.11 134.44 111.75 136.14 108.5C137.9 105.13 138.15 103.32 137.71 97C137.42 92.88 136.39 87.47 135.41 85C134.43 82.53 132.84 79.38 131.87 78C130.9 76.63 128.96 72.46 127.55 68.75C126.15 65.04 124.55 62 124 62C123.45 62 122.99 62.56 122.98 63.25Z" />
			<path class="shp4" d="M144.61 70.75C144.34 71.16 144.71 73.75 145.43 76.5C146.14 79.25 147.24 83.64 147.86 86.25C148.49 88.86 148.99 92.69 148.99 94.75C148.98 96.81 149.32 99.97 149.74 101.77C150.16 103.57 150.95 105.03 151.5 105.02C152.11 105 152.38 101.61 152.19 96.25C152.02 91.44 151.48 86.6 150.99 85.5C150.5 84.4 149.4 80.69 148.55 77.25C147.7 73.81 147 70.78 147 70.5C147 70.22 146.57 70 146.05 70C145.53 70 144.88 70.34 144.61 70.75Z" />
			<path class="shp5" d="M29.29 86.81C29.43 88.29 29.98 89.5 30.52 89.5C31.06 89.5 31.65 88.6 31.83 87.5C32 86.4 31.45 85.19 30.6 84.81C29.38 84.26 29.1 84.69 29.29 86.81ZM41 89.2C40.23 89.86 39.69 91.44 39.8 92.7C39.91 93.97 40.9 96.69 42 98.75C43.11 100.81 44.01 103.29 44 104.25C44 105.21 44.45 106 45 106C45.55 106 46 104.99 46 103.75C45.99 102.51 45.04 99.92 43.89 98C42.45 95.61 41.93 93.47 42.27 91.25C42.54 89.46 42.68 88 42.58 88C42.48 88 41.77 88.54 41 89.2Z" />
			<path class="shp4" d="M139.5 98.67C139.04 99.03 138.74 100.61 138.83 102.17C138.93 103.72 138.06 107.59 136.91 110.75C135.76 113.91 135.01 116.95 135.24 117.5C135.47 118.05 134.76 119.4 133.66 120.5C131.66 122.5 131.66 122.5 132.33 118.25C132.73 115.72 132.59 113.8 132 113.5C131.45 113.22 130.83 113.34 130.62 113.75C130.42 114.16 129.93 116.97 129.54 120C128.94 124.61 129.12 125.8 130.66 127.34C131.74 128.42 133.53 129.04 135 128.84C137.1 128.55 138 127.23 140.65 120.5L143.8 112.5C147.94 121.03 151.13 125.64 153.57 128.25C157.03 131.96 158.6 132.95 160.73 132.75C162.62 132.58 163.74 131.73 164.35 130C165.06 128.02 164.69 126.67 162.59 123.5C161.13 121.3 159.75 119.05 159.53 118.5C159.31 117.95 158.53 118.28 157.81 119.23C156.63 120.78 156.24 120.49 153.87 116.23C152.42 113.63 150.67 109.7 149.96 107.5C149.26 105.3 147.74 102.25 146.59 100.73C145.44 99.2 143.56 97.97 142.42 97.98C141.27 97.99 139.96 98.3 139.5 98.67Z" />
			<path class="shp5" d="M27.1 105.75C26.57 106.71 25.18 110.65 24.01 114.5C22.45 119.66 21.05 122.2 18.69 124.15C16.55 125.92 15.91 126.99 16.75 127.4C17.44 127.73 19.1 127.21 20.45 126.25C21.8 125.29 23.34 123.38 23.87 122C24.41 120.63 25.71 116.8 26.77 113.5C27.84 110.2 28.94 106.71 29.23 105.75C29.52 104.79 29.37 104 28.91 104C28.44 104 27.63 104.79 27.1 105.75ZM45.13 126.5C44.51 127.88 44 130.24 44.01 131.75C44.01 133.26 43.35 135.4 42.54 136.5C41.73 137.6 41.39 138.84 41.78 139.25C42.18 139.67 43.3 139.22 44.28 138.25C45.26 137.29 46.05 135.26 46.03 133.75C46.01 132.24 46.67 129.43 47.5 127.5C48.74 124.6 48.77 124 47.63 124C46.87 124 45.75 125.13 45.13 126.5Z" />
			<path class="shp4" d="M19.86 126.66C18.63 128.17 18.71 128.22 20.75 127.16C21.99 126.52 23 125.78 23 125.5C23 125.22 22.6 125 22.11 125C21.62 125 20.61 125.75 19.86 126.66Z" />
		</g>
		<g >
			<path fill-rule="evenodd" class="shp6" d="M109.5 17.09C113.12 17.06 115.87 17.8 119.49 19.77C122.45 21.39 125.07 23.72 125.93 25.5C126.77 27.23 127.57 32.53 127.8 38C128.02 43.23 128.63 47.95 129.16 48.5C129.68 49.05 132.67 49.5 135.8 49.5C140.97 49.5 141.52 49.71 141.75 51.75C141.9 53.08 141.21 54.51 140.06 55.25C138.33 56.37 138.27 56.77 139.49 59C140.24 60.38 142.19 64.2 143.84 67.5C145.48 70.8 147.53 77.33 148.4 82C149.27 86.67 150.02 92.3 150.06 94.5C150.1 96.7 150.69 100.97 151.38 104C152.06 107.03 153.27 110.74 154.06 112.25C154.85 113.76 156.51 115.44 157.75 116C159.46 116.76 159.88 117.6 159.5 119.5C159.19 121.06 159.59 122.47 160.55 123.25C161.4 123.94 162.53 125.96 163.05 127.75C163.73 130.09 163.65 131.43 162.75 132.54C162.06 133.39 160.94 134.07 160.25 134.04C159.56 134.02 157.65 131.97 156 129.5C154.35 127.03 153 124.1 153 123C153 121.9 152.21 120.61 151.25 120.13C150.29 119.65 148.49 116.95 147.25 114.13C145.88 111.02 144.64 105.36 144.08 99.75C143.58 94.66 142.9 89.71 142.58 88.75C142.26 87.79 141.55 87 141 87C140.45 87 140.29 87.79 140.66 88.75C141.02 89.71 141.66 94.1 142.08 98.5C142.73 105.28 142.54 107.34 140.85 112C139.76 115.03 138.39 119.3 137.81 121.5C137.23 123.7 136.36 126.51 135.88 127.75C135.28 129.29 134.29 129.92 132.75 129.75C130.97 129.55 130.43 128.78 130.18 126C129.99 123.84 131.36 118.09 137.66 99.5L135.25 90C133.93 84.78 131.68 78.47 130.25 76C128.83 73.53 126.89 70.6 125.95 69.5C125 68.4 123.32 65.7 122.22 63.5C121.12 61.3 119.69 57.48 119.05 55C118.41 52.52 117.19 48.92 116.34 47C115.5 45.08 113.98 41.7 112.97 39.5C111.97 37.3 110.39 34.83 109.47 34C108 32.68 106.85 32.67 100.15 33.88C95.94 34.64 91.38 35.32 90 35.38C88.04 35.47 87.43 34.96 87.19 33C86.97 31.13 88.1 29.28 91.69 25.64C94.34 22.97 98.3 19.97 100.5 18.96C102.7 17.96 106.75 17.12 109.5 17.09ZM107.83 25.17C107.92 25.63 108.9 26 110 26C111.1 26 112.94 27.01 114.09 28.25C115.24 29.49 117.47 32.98 119.04 36C120.78 39.35 121.92 40.72 121.93 39.5C121.95 38.4 121.39 35.25 120.69 32.5C119.62 28.27 118.81 27.15 115.44 25.25C113.24 24.01 110.97 23 110.39 23C109.81 23 108.96 23.3 108.5 23.67C108.04 24.03 107.74 24.71 107.83 25.17ZM134 66.5C134.55 66.78 135.24 66.89 135.52 66.75C135.81 66.61 135.47 65.88 134.76 65.13C133.9 64.22 133.39 64.13 133.23 64.88C133.1 65.49 133.45 66.22 134 66.5ZM79.49 24.29C83.61 24.46 84.54 24.85 84.83 26.5C85.03 27.6 84.56 28.95 83.78 29.5C83.01 30.05 82.07 31.29 81.69 32.25C81.18 33.54 79.88 34 76.75 33.99C73.48 33.98 71.06 34.9 66.25 37.99C62.81 40.19 60.02 42.34 60.04 42.75C60.07 43.16 58.7 44.85 57.01 46.51C55.12 48.34 53.52 51.26 52.88 54.01C52.31 56.48 51.47 60.75 51.02 63.5C50.56 66.25 49.76 69.63 49.23 71C48.61 72.61 48.63 78.66 49.29 88C49.85 95.97 50.31 105.42 50.31 109C50.31 113.33 49.17 119.61 46.91 127.8C43.64 139.57 43.39 140.08 41 139.8C38.88 139.55 38.46 138.92 38.25 135.75C38.05 132.76 37.54 131.91 35.75 131.55C33.7 131.14 33.57 130.73 34.25 127.05C34.91 123.5 34.75 122.94 33 122.5C31.24 122.06 31 121.17 31 115C31 111.15 31.48 105.64 32.06 102.75C32.64 99.86 32.98 97.39 32.81 97.27C32.64 97.14 31.33 100.06 29.91 103.77C28.48 107.47 26.24 113.88 24.93 118C23.61 122.13 21.97 126.51 21.27 127.75C20.57 128.99 19.21 130.02 18.25 130.04C17.29 130.07 15.82 129.37 15 128.5C13.79 127.22 13.73 126.48 14.69 124.7C15.34 123.49 16.81 120.25 17.96 117.5C19.11 114.75 20.03 111.83 20 111C19.97 110.17 21.38 105.9 23.13 101.5C24.87 97.1 27.13 92.26 28.15 90.75C29.17 89.24 30.01 87.66 30.03 87.25C30.04 86.84 29.15 84.47 28.05 82C26.78 79.16 26.03 75.29 26.02 71.5C25.99 66.31 26.39 65 28.99 61.75C31.63 58.46 31.83 57.79 30.62 56.25C29.86 55.29 28.51 53.04 27.62 51.25C26.73 49.46 26 46.2 26 44C26 40.56 26.53 39.59 29.75 37.09C31.81 35.49 34.85 33.65 36.5 33C38.15 32.35 44.22 30.94 50 29.86C55.78 28.78 62.52 27.53 65 27.09C67.47 26.64 70.63 25.79 72 25.18C73.38 24.58 76.75 24.17 79.49 24.29ZM52 38.5C52.55 38.77 53.43 38.33 53.95 37.5C54.67 36.36 54.43 36 52.95 36C51.88 36 51 36.45 51 37C51 37.55 51.45 38.23 52 38.5ZM34.16 42.49L31.82 44.5C36.35 51.93 37.44 52.84 38.75 52.37C39.71 52.03 41.57 51.46 42.87 51.12C44.18 50.78 45.42 50.16 45.62 49.75C45.83 49.34 45.1 49 44 49C42.9 49 41.72 48.21 41.37 47.25C41.03 46.29 41.48 43.81 42.37 41.75C43.58 38.97 43.68 38.02 42.75 38.07C42.06 38.1 40.38 38.66 39 39.3C37.63 39.95 35.45 41.38 34.16 42.49ZM32.86 74.5C33.78 76.2 33.94 75.87 33.97 72.25C33.99 69.91 33.78 68 33.52 68C33.25 68 32.75 69.01 32.41 70.25C32.06 71.49 32.27 73.4 32.86 74.5ZM40.54 95.5C40.12 98.25 40.06 102.75 40.41 105.5C40.77 108.25 41.44 111.85 41.9 113.5L42.73 116.5C43.9 110.98 43.6 105.48 42.76 100L41.32 90.5L40.54 95.5Z" />
			<path fill-rule="evenodd" class="shp7" d="M109.03 38C110.11 38 111.24 38.56 111.54 39.25C111.84 39.94 111.64 41.63 111.11 43C110.36 44.94 110.52 45.86 111.82 47.12C112.74 48.02 114.36 48.69 115.4 48.62C116.67 48.54 117.59 49.43 118.15 51.25C118.69 52.98 118.63 54 118 54C117.45 54 116.16 55.91 115.14 58.25C114.11 60.59 112.2 63.55 110.89 64.83C108.88 66.78 107.69 67.09 103.5 66.77C100.24 66.51 97.35 65.53 95.2 63.94C93.38 62.6 91.64 60.38 91.34 59C91.03 57.63 91.06 55.49 91.39 54.25C91.73 53.01 92.9 51.1 96 48L94 45C92.9 43.35 92.22 41.33 92.5 40.5C92.78 39.67 94.01 38.99 95.25 38.97C96.8 38.95 98.12 40.04 99.5 42.48C100.6 44.43 102.28 46.01 103.25 46.01C104.38 46 104.97 45.27 104.91 43.93C104.86 42.8 105.32 41 105.94 39.93C106.55 38.87 107.94 38 109.03 38ZM97.61 55.31C96.7 56.8 96.95 57.49 99 59.13C100.38 60.24 102.58 60.99 103.9 60.82C105.22 60.64 107.15 59.38 108.19 58C109.23 56.63 109.84 54.71 109.54 53.75C109.22 52.71 108.09 52.05 106.75 52.12C105.51 52.18 103.2 52.52 101.61 52.87C100.02 53.22 98.22 54.32 97.61 55.31ZM63.97 40.23C64.81 40.39 65.95 41.95 66.5 43.7C67.05 45.44 67.95 47.35 68.5 47.95C69.21 48.71 70.74 48.36 73.73 46.76C77.04 44.99 78.33 44.74 79.73 45.61C80.7 46.22 81.5 47.34 81.5 48.09C81.5 48.84 79.59 50.48 77.25 51.73C73.3 53.84 73.04 54.23 73.59 57.25C73.95 59.23 73.56 61.96 71 68L63.25 68.01C57.42 68.01 54.91 67.58 53.12 66.26C51.24 64.87 50.85 63.87 51.28 61.5C51.57 59.85 52.34 56.48 52.98 54C53.62 51.52 54.67 48.92 55.32 48.21C55.97 47.49 57.29 46.93 58.25 46.96C59.48 46.99 59.94 46.31 59.8 44.7C59.69 43.44 60.24 41.85 61.02 41.17C61.8 40.49 63.13 40.07 63.97 40.23ZM58.23 54.87C57.54 55.76 56.97 57.74 56.98 59.25C57 61.88 57.22 62 62 62C66.79 62 67 61.88 67.01 59.25C67.01 57.74 66.34 55.49 65.51 54.25C64.68 53.01 63.66 52.04 63.25 52.08C62.84 52.12 61.83 52.4 61 52.69C60.17 52.99 58.93 53.97 58.23 54.87ZM87.3 73.98C87.96 73.97 89.51 76 90.75 78.48C91.99 80.97 94.35 83.79 96 84.75C97.65 85.71 99.56 87.76 100.25 89.3C101.38 91.84 101.26 92.33 99 94.47C97.13 96.24 95.11 96.92 91 97.17C86.08 97.46 85.5 97.29 85.5 95.53C85.5 93.98 86.46 93.38 90 92.74C92.47 92.3 94.84 91.72 95.25 91.46C95.66 91.21 95.44 90.3 94.75 89.46C94.06 88.61 92.94 87.93 92.25 87.96C91.56 87.98 89.91 86.54 88.58 84.75C87.25 82.96 85.84 80.38 85.46 79C85.08 77.63 85.06 75.94 85.43 75.25C85.8 74.56 86.64 73.99 87.3 73.98Z" />
			<path class="shp4" d="M140.53 88.75C141 89.71 141.56 93.2 141.77 96.5C141.99 99.8 142.59 102.95 143.1 103.5C143.69 104.13 144.03 102.64 144.01 99.5C144 96.75 143.54 92.81 142.99 90.75C142.45 88.69 141.48 87 140.84 87C140.09 87 139.98 87.6 140.53 88.75Z" />
			<path class="shp7" d="M61 108.2C60.23 108.86 59.71 109.87 59.83 110.45C59.96 111.03 62 113.75 64.37 116.5C67.1 119.67 69.82 121.77 71.83 122.25C74.02 122.77 78.01 122.23 84.75 120.5C90.11 119.12 95.51 118 96.75 118C97.99 118 99.9 117.55 101 117C102.1 116.45 103 115.33 103 114.5C103 113.67 102.1 112.55 101 112C99.9 111.45 97.31 111.27 95.25 111.6C93.19 111.93 88.58 113.06 85 114.12C81.42 115.18 77.15 116.04 75.5 116.04C73.28 116.03 71.34 114.86 68 111.5C65.53 109.01 63.25 106.98 62.95 106.99C62.65 106.99 61.77 107.54 61 108.2Z" />
		</g>
		<path fill-rule="evenodd" class="shp8" d="M171.95 35.97C172.25 35.95 174.64 37.53 177.25 39.47C179.86 41.41 182.11 43.34 182.25 43.75C182.39 44.16 185.43 45.94 189 47.71C192.57 49.47 197.26 52.4 199.42 54.21C202.25 56.59 203.15 57.99 202.67 59.25C202.3 60.21 201.1 61 200 61C198.9 61 196.55 59.76 194.77 58.25C193 56.74 188.61 54.05 185.02 52.29C181.43 50.52 178.41 49.17 178.29 49.29C178.17 49.4 179.24 52.88 180.65 57C182.85 63.41 183.28 66.69 183.64 79.5C183.86 87.75 184.6 96.87 185.28 99.77C185.95 102.67 186.72 105.05 187 105.06C187.28 105.08 189.64 102.59 192.25 99.54C194.86 96.5 197.01 93.66 197.02 93.25C197.03 92.84 195.67 91.15 194 89.5C192.33 87.85 190.97 85.49 190.98 84.25C190.99 83.01 191.68 81.78 192.5 81.5C193.36 81.21 196.34 83.02 199.49 85.75C202.51 88.36 204.98 91.29 204.99 92.25C204.99 93.21 202.64 96.77 199.75 100.17C196.86 103.56 192.7 108.31 190.5 110.74C187.46 114.08 185.9 115.06 184 114.82C182.05 114.57 181.43 113.84 181.18 111.5C181 109.85 179.99 105.13 178.92 101C177.48 95.41 176.99 90.13 176.99 80.25C177 71.81 176.48 65.1 175.56 61.75C174.77 58.86 172.96 53.35 171.54 49.5C170.13 45.65 168.88 41.58 168.78 40.45C168.68 39.32 169.23 37.86 170 37.2C170.77 36.54 171.65 35.99 171.95 35.97ZM281.21 62.18C282.81 62.43 283.77 64.04 285.39 69.28C287.27 75.32 287.77 76.04 290 75.98C291.38 75.94 293.18 76.66 294 77.57C295.35 79.07 295.23 79.45 292.73 81.37C290.01 83.47 289.98 83.58 291.13 89C291.77 92.03 292.9 95.96 293.65 97.75C294.39 99.54 295 102.13 295 103.5C295 104.88 294.3 106.34 293.45 106.75C292.51 107.2 291.4 106.91 290.61 106C289.9 105.17 288.61 102.47 287.73 100C286.86 97.53 285.55 92.88 284.82 89.69C283.57 84.2 283.36 83.91 281 84.52C279.63 84.87 278.45 85.24 278.4 85.33C278.34 85.42 277.56 88.54 276.65 92.25C275.74 95.96 275 100.58 275 102.5C275 104.42 274.55 106.9 274 108C273.45 109.1 272.32 110 271.5 110C270.68 110 269.55 109.1 269 108C268.45 106.9 268 104.76 268.01 103.25C268.02 101.74 268.63 98.47 269.36 96C270.1 93.53 271 90.26 271.35 88.75C271.75 87.05 271.62 86.19 271 86.5C270.45 86.78 269.1 86.78 268 86.5C266.67 86.17 266 85.17 266 83.5C266 81.54 266.66 80.84 269.07 80.25C271.25 79.72 272.27 78.78 272.62 77C272.88 75.63 274.46 71.66 276.12 68.18C278.55 63.08 279.54 61.93 281.21 62.18ZM280 78C280.55 78 280.81 77.33 280.57 76.5C280.34 75.67 279.89 75 279.57 75C279.26 75 279 75.67 279 76.5C279 77.33 279.45 78 280 78ZM246.28 64.97C246.95 64.95 248.25 65.74 249.17 66.72C250.09 67.7 251.15 69.85 251.53 71.5C251.9 73.15 253.15 77.2 254.3 80.5C256.15 85.82 256.47 86.22 257.08 84C257.46 82.63 258.32 78.8 259 75.5C259.67 72.2 260.39 68.94 260.61 68.25C260.82 67.56 261.7 66.66 262.55 66.25C263.48 65.8 264.68 66.1 265.55 67C266.73 68.22 266.8 69.43 265.94 73.5C265.35 76.25 264.34 84.44 263.69 91.71C262.95 99.9 262 105.41 261.18 106.21C260.1 107.27 259.47 107.05 257.67 105C256.46 103.63 254.39 99.13 253.07 95C251.75 90.88 250.11 86.38 248.2 82.5L247.56 86C247.21 87.92 246.65 93.1 246.32 97.5C246 101.9 245.34 106.29 244.86 107.25C244.39 108.21 243.32 109 242.5 109C241.68 109 240.48 107.99 239.85 106.75C238.99 105.05 239 102.04 239.9 94.5C240.56 89 241.52 83.15 242.04 81.5C242.55 79.85 242.94 76.33 242.9 73.68C242.86 71.04 243.32 68 243.94 66.93C244.55 65.87 245.61 64.99 246.28 64.97ZM231.75 66.04C233.42 66.01 234.01 66.58 234.02 68.25C234.04 70.01 232.73 71.16 228.05 73.5C222.59 76.23 221.95 76.89 221.02 80.75C220.46 83.09 220 85.22 220 85.5C220 85.78 221.69 85.27 223.75 84.37C225.81 83.48 228.29 83.03 229.25 83.37C230.21 83.72 231 84.9 231 86C231 87.24 229.95 88.44 228.25 89.15C226.74 89.79 223.7 91.12 221.5 92.1C217.86 93.74 217.43 94.33 216.77 98.7C216.37 101.34 216.25 103.61 216.52 103.75C216.78 103.89 218.01 103.31 219.25 102.46C220.49 101.61 222.63 101.05 224 101.21C225.75 101.41 226.58 102.18 226.75 103.75C226.96 105.6 225.99 106.47 221.25 108.64C218.09 110.1 214.26 111.67 212.75 112.14C210.7 112.78 209.75 112.62 209 111.5C208.34 110.51 208.33 108.4 208.98 105.25C209.53 102.64 211.31 94.88 212.95 88C214.58 81.13 216.05 74.39 216.21 73.04C216.42 71.22 217.28 70.4 219.5 69.91C221.15 69.54 224.07 68.53 226 67.66C227.93 66.79 230.51 66.06 231.75 66.04Z" />
	</g>
</svg>