<svg xmlns="http://www.w3.org/2000/svg" viewBox="0 0 320 169" width="320" height="169">
	<style>
		tspan { white-space:pre }
		.shp0 { fill: #000000 } 
		.shp1 { fill: #147c1a } 
		.shp2 { fill: #e2b979 } 
	</style>
	<g id="Background">
		<g id="Layer 2">
			<path id="Path 0" class="shp0" d="M70 26.3C68.08 27.57 63.8 29.8 60.5 31.25C57.2 32.71 51.8 34.54 48.5 35.33C45.2 36.12 39.35 37.32 35.5 38C31.65 38.68 26.3 40.2 23.62 41.37C20.94 42.54 18.24 44.08 17.62 44.79C17 45.51 15.31 46.07 13.85 46.04C12.39 46.02 10.49 46.79 9.62 47.75C8.76 48.71 8.05 49.95 8.05 50.5C8.05 51.05 8.66 52.17 9.4 53C10.14 53.83 11.56 56.98 12.55 60C13.54 63.02 16.25 69.1 18.57 73.5C20.88 77.9 23.35 83.97 24.04 87C24.74 90.03 26.1 94.08 27.06 96C28.02 97.92 31.62 105.35 35.06 112.5C38.49 119.65 42.44 127.75 43.85 130.5C45.25 133.25 46.3 136.74 46.2 138.25C46.04 140.45 46.55 141.18 48.75 141.89C50.39 142.41 53.72 142.38 57 141.8C60.92 141.11 64.22 141.18 68.5 142.07C71.8 142.75 78.33 143.72 83 144.23C87.67 144.73 95.31 145.23 99.97 145.32C107.52 145.48 108.55 145.28 109.47 143.5C110.04 142.4 111.74 140.26 113.25 138.75C115.83 136.17 115.91 135.85 114.5 133.5C113.13 131.21 113.17 130.81 114.98 128.75C116.07 127.51 116.99 126.05 117.02 125.5C117.06 124.95 116.38 123.83 115.5 123C114.4 121.95 114.24 121.2 114.98 120.5C115.56 119.95 116.03 118.49 116.02 117.25C116.01 116.01 115.57 114.21 115.03 113.25C114.5 112.29 112.68 107.9 110.97 103.5C109.27 99.1 107.26 94.15 106.51 92.5C105.75 90.85 103.74 86.13 102.05 82C100.35 77.88 98.24 73.15 97.36 71.5C96.48 69.85 94.55 64.67 93.07 60C91.6 55.33 88.28 48.01 85.69 43.75C83.11 39.49 81 35.77 81 35.5C81 35.23 80.33 32.52 79.5 29.5C78.25 24.91 77.63 24 75.75 24C74.51 23.99 71.92 25.03 70 26.3Z" />
			<path id="Path 1" class="shp1" d="M68.5 33.88C66.85 34.84 62.13 36.87 58 38.38C53.88 39.9 46.9 41.77 42.5 42.53C38.1 43.3 31.8 44.87 28.5 46.03C25.2 47.19 21.2 49.11 19.62 50.32C17.11 52.22 16.82 52.95 17.36 56C17.71 57.92 20.41 64.45 23.37 70.5C26.34 76.55 30 85.33 31.51 90C33.02 94.67 34.81 99.17 35.49 100C36.16 100.83 38.2 104.65 40.01 108.5C41.83 112.35 44.03 117.3 44.91 119.5C45.79 121.7 47.85 125.88 49.5 128.78C51.15 131.69 53.17 134.05 54 134.04C54.83 134.03 59.1 131.76 63.5 128.99C67.9 126.23 73.53 123.23 76 122.33C78.47 121.44 84.33 119.03 89 116.98C93.67 114.94 98.63 112.91 100 112.49C101.38 112.06 103.51 111.1 104.75 110.36C106.85 109.09 106.91 108.78 105.64 105.75C104.89 103.96 103.38 100.47 102.27 98C101.17 95.53 99 90.35 97.46 86.5C95.92 82.65 93.44 76.8 91.96 73.5C90.48 70.2 88.09 64.01 86.64 59.75C85.19 55.49 82.27 49.19 80.16 45.75C78.05 42.31 75.8 37.81 75.16 35.75C74.52 33.69 73.44 32.03 72.75 32.07C72.06 32.11 70.15 32.93 68.5 33.88Z" />
			<path id="Path 2" fill-rule="evenodd" class="shp0" d="M295.73 52.97C297.14 52.94 298.72 56.54 303.5 70.69C306.8 80.46 310.51 89.92 311.75 91.73C313.88 94.83 313.91 95.08 312.25 96.47C311.29 97.29 310.05 97.98 309.5 98.01C308.95 98.04 307.79 97.26 306.93 96.28C306.06 95.3 302.52 85.95 299.05 75.5C295.58 65.05 293.02 55.71 293.35 54.75C293.68 53.79 294.75 52.99 295.73 52.97ZM74.5 60.29C76.74 60.45 77.5 60.99 77.5 62.46C77.5 64.04 75.45 65.17 67 68.27C61.22 70.38 55.38 72.78 54 73.59C52.63 74.41 49.02 76.2 46 77.57C42.98 78.94 39.94 79.83 39.25 79.53C38.56 79.24 37.98 78.21 37.96 77.25C37.93 76.29 38.49 75 39.21 74.4C39.92 73.79 42.08 72.74 44 72.08C45.92 71.41 48.63 70.08 50 69.13C51.38 68.17 55.88 66.14 60 64.62C64.13 63.1 68.4 61.45 69.5 60.97C70.6 60.48 72.85 60.18 74.5 60.29ZM160.25 62.09C161.21 62.04 162.34 62.68 162.75 63.5C163.22 64.44 162.76 65.76 161.5 67.04C160.4 68.16 157.93 69.57 156 70.17C154.07 70.77 151.71 71.65 150.75 72.13C149.15 72.93 149.29 73.65 152.53 80.75C154.83 85.81 156.04 89.98 156.03 92.75C156.01 95.09 155.31 98.24 154.46 99.75C153.62 101.26 151.6 103.29 149.96 104.25C148.33 105.21 146.21 106.01 145.25 106.03C144.29 106.05 141.7 104.87 139.5 103.4C137.3 101.94 135.2 100.24 134.84 99.62C134.47 99.01 134.36 97.94 134.59 97.25C134.81 96.56 135.9 96 137 96C138.1 96 140.24 96.92 141.75 98.03C143.26 99.15 144.95 100.07 145.5 100.07C146.05 100.07 147.31 99.26 148.3 98.28C149.66 96.94 150 95.4 149.69 92C149.46 89.53 148.09 84.8 146.65 81.5C145.21 78.2 143.59 75.05 143.05 74.5C142.39 73.83 141.13 73.9 139.28 74.71C137.75 75.37 134.81 76.16 132.75 76.46C129.78 76.89 128.87 76.64 128.35 75.25C127.93 74.11 128.37 73.06 129.6 72.26C130.64 71.57 135.1 70.09 139.5 68.97C143.9 67.84 149.97 65.86 153 64.55C156.03 63.25 159.29 62.14 160.25 62.09ZM76.25 71.06C77.21 71.03 78 71.67 78 72.5C78 73.4 74.52 75.65 69.25 78.15C64.44 80.43 58.59 83.58 56.25 85.15C53.91 86.72 51.33 87.78 50.5 87.5C49.67 87.22 49 86.55 49 86C49 85.45 51.14 83.56 53.75 81.8C56.36 80.04 62.1 76.92 66.5 74.86C70.9 72.8 75.29 71.09 76.25 71.06ZM227.97 74C230.17 74 231.01 74.48 231.05 75.75C231.07 76.71 229.5 78.74 227.55 80.25C225.32 81.98 224.01 83.84 224.03 85.25C224.04 86.49 225.28 90.07 226.78 93.21C229.21 98.31 229.34 99.1 228 100.51C227.18 101.38 225.94 102.07 225.25 102.04C224.56 102.02 223.32 100.88 222.5 99.5C221.68 98.13 219.93 93.96 216.27 83.5L220.61 78.75C223.96 75.09 225.64 74 227.97 74ZM249.05 76.1C250.87 76.65 252.63 78.25 253.63 80.25C254.52 82.04 256.04 85.97 257 89C258.11 92.53 258.43 95.13 257.87 96.25C257.39 97.21 256.32 98 255.5 98C254.68 98 253.38 96.54 252.63 94.75C251.87 92.96 250.64 89.47 249.88 87C249.04 84.28 247.91 82.5 247 82.5C245.79 82.5 245.45 84.31 245.25 91.75C245 100.88 244.97 101 242.5 101C240.72 101 239.86 100.35 239.51 98.75C239.25 97.51 239.03 93.35 239.03 89.5C239.03 84.94 239.57 81.64 240.57 80.02C241.42 78.66 243.01 77.01 244.11 76.37C245.45 75.57 247.07 75.49 249.05 76.1ZM175.92 76.97C177.34 76.95 179.65 77.96 181.06 79.22C182.46 80.47 184.43 83.53 185.42 86C186.41 88.47 186.97 91.63 186.66 93C186.36 94.38 184.62 97.21 182.8 99.29C180.05 102.46 178.84 103.1 175.5 103.16C173.18 103.21 169.49 102.25 161.89 98.5L162.5 81.63L167.14 80.06C169.7 79.2 172.13 78.16 172.56 77.75C172.99 77.34 174.5 76.98 175.92 76.97ZM168.25 86.02C167.56 86.56 167.11 88.64 167.25 90.7C167.46 93.77 168.09 94.72 171 96.33C173.63 97.79 175 98.03 176.5 97.28C177.6 96.73 179.18 95.05 180 93.56C181.37 91.07 181.33 90.52 179.5 87.23C178.4 85.25 177.05 83.53 176.5 83.41C175.95 83.28 174.15 83.6 172.5 84.11C170.85 84.62 168.94 85.48 168.25 86.02ZM275.44 76.99C277.67 76.99 280.51 77.66 281.75 78.49C282.99 79.32 284.67 81.46 285.49 83.25C286.31 85.04 288.11 87.74 289.49 89.25C290.87 90.76 292 92.9 292 94C292 95.56 291.33 96 289 96C287.22 96 285.8 95.39 285.5 94.5C285.23 93.67 284.32 93 283.5 93C282.68 93 281.77 93.67 281.5 94.5C281.13 95.6 279.48 96 275.25 95.99C269.59 95.98 269.47 95.92 267.25 91.99C266.01 89.8 264.91 87.01 264.79 85.8C264.67 84.42 265.87 82.35 267.99 80.3C270.69 77.67 272.21 77 275.44 76.99ZM272.5 88.5C273.32 89.88 274.56 91.01 275.25 91.03C275.94 91.04 277.18 89.89 278 88.47C279.13 86.51 279.23 85.47 278.39 84.19C277.78 83.26 276.65 82.38 275.87 82.22C275.09 82.07 273.68 82.86 272.73 83.97C271.17 85.8 271.15 86.24 272.5 88.5ZM208.2 78C208.64 78 209.68 79.01 210.51 80.25C211.36 81.52 212.01 84.68 212 87.5C211.99 90.25 211.54 94.19 210.99 96.25C210.43 98.38 208.81 100.88 207.25 102.03C205.74 103.15 203.38 104.06 202 104.04C200.63 104.03 198.49 103.34 197.25 102.51C196.01 101.68 194.05 99.09 192.89 96.75C191.62 94.18 190.73 90.33 190.64 87C190.51 81.99 190.7 81.48 192.75 81.25C194.2 81.09 195.15 81.62 195.41 82.75C195.64 83.71 196.13 86.3 196.51 88.5C196.89 90.7 197.83 93.74 198.6 95.25C199.42 96.87 200.82 98 202 98C203.25 98 204.41 96.97 205.1 95.25C205.8 93.47 205.91 90.33 205.39 86.33C204.76 81.49 204.89 79.92 205.99 79.08C206.77 78.49 207.76 78 208.2 78Z" />
			<path id="Path 3" class="shp2" d="M98.91 119.22C93.74 121.41 87.7 123.91 85.5 124.79C83.3 125.67 80.6 127.02 79.5 127.79C77.66 129.08 77.78 129.15 81 128.61C82.92 128.29 88.1 127.77 92.5 127.45C96.9 127.14 101.51 126.68 102.75 126.44C104.05 126.19 105.01 125.26 105.02 124.25C105.03 123.29 106.15 121.49 107.52 120.25C108.88 119.01 110.05 117.58 110.1 117.06C110.16 116.54 109.78 115.92 109.27 115.68C108.75 115.44 104.09 117.04 98.91 119.22ZM82.27 133.82C80.5 134.74 79.04 136.06 79.02 136.75C79.01 137.65 82.32 138.14 91 138.5C100.81 138.91 103.27 138.73 104.5 137.5C105.61 136.39 105.74 135.48 105 134C104.1 132.21 103.04 132.01 94.75 132.07C88.15 132.12 84.58 132.62 82.27 133.82Z" />
		</g>
	</g>
</svg>