<svg xmlns="http://www.w3.org/2000/svg" viewBox="0 0 295 156" width="245" height="130">
	<style>
		tspan { white-space:pre }
		.shp0 { fill: #000000 } 
		.shp1 { fill: #147c1a } 
		.shp2 { fill: #e2b979 } 
	</style>
	<g id="Background">
		<g id="Layer 2">
			<path id="Path 0" class="shp0" d="M63 14C63 14.55 59.74 16.53 55.75 18.4C51.76 20.26 46.25 22.51 43.5 23.38C40.75 24.26 36.92 25.17 35 25.42C33.08 25.67 29.02 26.42 26 27.08C22.98 27.74 18.59 29.12 16.25 30.14C13.91 31.16 11.78 32.45 11.5 33C11.22 33.55 9.84 34 8.43 34C7.01 34 5.21 34.67 4.43 35.5C3.64 36.33 3 37.67 3 38.5C3 39.33 3.34 39.99 3.75 39.98C4.16 39.97 5.36 42.56 6.4 45.73C7.45 48.9 9.99 54.65 12.06 58.5C14.13 62.35 16.63 68.42 17.62 72C18.6 75.58 21.63 83 24.35 88.5C27.06 94 31.26 102.78 33.67 108C36.08 113.22 38.04 118.51 38.03 119.75C38.01 121.4 38.74 122.17 40.75 122.63C42.26 122.97 45.75 122.96 48.5 122.6C51.41 122.22 57.78 122.59 63.75 123.47C69.39 124.31 74.45 124.78 75 124.5C75.55 124.22 76.56 124.45 77.25 125C77.94 125.54 82.33 125.88 87 125.75C94.75 125.52 95.59 125.3 96.5 123.24C97.05 121.99 98.29 120.75 99.25 120.49C100.21 120.22 101.23 119.21 101.51 118.25C101.8 117.29 101.35 115.49 100.51 114.25C99.68 113.01 99.34 112.01 99.75 112.03C100.16 112.04 101.17 110.94 102 109.57C103.21 107.57 103.26 106.79 102.25 105.55C101.37 104.45 101.29 103.42 102 102C102.73 100.55 102.59 99.32 101.5 97.5C100.67 96.13 100 94.33 100 93.5C100 92.67 98.91 89.64 97.58 86.75C96.24 83.86 92.6 75.42 89.49 68C86.37 60.58 82.37 50.45 80.6 45.5C78.83 40.55 75.72 33.91 73.69 30.75C71.66 27.59 69.72 23.31 69.39 21.25C69.05 19.19 68.15 16.49 67.39 15.25C66.62 14.01 65.33 13 64.5 13C63.67 13 63 13.45 63 14Z" />
			<path id="Path 1" class="shp1" d="M56 24.08C52.98 25.64 48.02 27.66 45 28.55C41.98 29.45 38.15 30.35 36.5 30.56C34.85 30.76 32.15 31.21 30.5 31.54C28.85 31.87 25.25 32.85 22.5 33.72C19.75 34.59 15.99 36.48 14.15 37.9C11.28 40.13 10.88 40.93 11.41 43.5C11.75 45.15 14.2 50.77 16.87 56C19.54 61.23 22.26 67.75 22.92 70.5C23.58 73.25 27.25 82.03 31.08 90C34.9 97.97 39.31 106.97 40.87 110C43 114.14 44.16 115.42 45.6 115.17C46.64 114.99 50.2 113.09 53.5 110.95C56.8 108.8 66.7 104.08 75.5 100.45C84.3 96.82 92.06 93.66 92.75 93.42C93.44 93.19 93.99 92.66 93.98 92.25C93.96 91.84 93 89.47 91.83 87C90.67 84.53 89.13 81.15 88.41 79.5C87.69 77.85 84.86 71.1 82.12 64.5C79.37 57.9 76.2 49.69 75.06 46.25C73.93 42.81 71.27 37.19 69.15 33.75C67.03 30.31 65 26.04 64.65 24.25C64.29 22.46 63.44 21.05 62.75 21.12C62.06 21.18 59.02 22.51 56 24.08Z" />
			<path id="Path 2" fill-rule="evenodd" class="shp0" d="M267.92 39.96C268.24 39.93 268.98 40.49 269.56 41.21C270.15 41.92 272.79 49.02 275.42 57C278.06 64.97 281.07 73.19 282.11 75.25C283.15 77.31 283.77 79.67 283.5 80.5C283.23 81.33 282.32 82 281.5 82C280.68 82 279.39 81.44 278.64 80.75C277.88 80.06 274.73 71.96 271.64 62.75C268.54 53.54 265.93 44.95 265.83 43.67C265.74 42.38 266.04 41.03 266.5 40.67C266.96 40.3 267.6 39.98 267.92 39.96ZM64.25 47.09C65.76 47.04 67.19 47.56 67.41 48.25C67.64 48.94 67.53 49.97 67.16 50.54C66.8 51.12 63.18 52.69 59.13 54.04C55.08 55.39 47.43 58.58 42.13 61.13C36.83 63.68 31.94 65.59 31.25 65.38C30.56 65.17 30 64.1 30 63C30 61.47 32.16 59.95 39.25 56.51C44.34 54.04 51.42 50.93 55 49.6C58.58 48.27 62.74 47.15 64.25 47.09ZM143.25 49.04C144.21 49.02 145.22 49.45 145.5 50C145.78 50.55 145.55 51.9 145 53C144.41 54.18 141.85 55.67 138.75 56.63C135.86 57.53 133.38 58.32 133.24 58.38C133.1 58.45 134.34 61.76 135.99 65.75C137.82 70.15 139 74.77 139 77.5C139 80.33 138.26 83.11 137 85C135.9 86.65 133.88 88.45 132.5 89C130.69 89.72 129.1 89.62 126.75 88.62C124.96 87.86 122.49 86.28 121.25 85.12C120.01 83.95 119 82.55 119 82C119 81.45 119.79 80.71 120.75 80.35C121.71 79.99 123.29 80.22 124.25 80.85C125.21 81.48 126.87 82.56 127.94 83.25C129.58 84.3 130.21 84.19 131.97 82.5C133.13 81.39 134.05 79.27 134.03 77.75C134.01 76.24 132.84 72.19 131.41 68.75C129.99 65.31 128.3 61.95 127.66 61.28C126.75 60.31 125.44 60.37 121.5 61.54C118.75 62.36 115.94 63.02 115.25 63.01C114.56 63.01 114 61.88 114 60.5C114 58.31 114.71 57.8 119.75 56.39C122.91 55.5 127.97 54.12 131 53.32C134.03 52.51 137.63 51.23 139 50.47C140.38 49.7 142.29 49.06 143.25 49.04ZM65.59 57.03C66.19 57.01 66.64 57.72 66.59 58.61C66.54 59.49 64.92 61.04 63 62.05C61.08 63.06 57.02 65.1 54 66.59C50.98 68.08 47.26 70.24 45.74 71.4C43.56 73.06 42.73 73.24 41.74 72.27C40.75 71.3 40.91 70.61 42.5 68.92C43.6 67.74 49 64.6 54.5 61.92C60 59.24 64.99 57.04 65.59 57.03ZM205.46 60C207.2 60 208.01 60.55 208.02 61.75C208.03 62.71 206.68 64.51 205.02 65.75C203.2 67.11 202.01 68.89 202.02 70.25C202.03 71.49 202.95 74.53 204.05 77C205.15 79.47 206.04 82.29 206.03 83.25C206.01 84.21 205.28 85.34 204.39 85.75C203.28 86.27 202.2 85.73 200.91 84C199.88 82.63 198.08 78.58 194.78 68.5L198.85 64.25C201.55 61.44 203.78 60 205.46 60ZM222.75 61.06C222.89 61.03 224.13 61.56 225.52 62.25C226.9 62.94 228.67 64.85 229.45 66.5C230.23 68.15 231.53 71.75 232.34 74.5C233.16 77.25 233.63 80.06 233.41 80.75C233.18 81.44 232.32 82 231.5 82C230.68 82 229.36 80.99 228.57 79.75C227.79 78.51 226.88 75.92 226.55 74C226.23 72.08 225.3 69.6 224.5 68.5C223.23 66.77 222.9 66.7 221.99 68C221.41 68.83 221 72.42 221.08 76C221.16 79.58 221.17 83.06 221.11 83.75C221.05 84.44 220.1 85 219 85C217.9 85 216.78 84.33 216.5 83.5C216.22 82.67 216 78.63 216 74.5C216 70.38 216.54 66.07 217.21 64.94C217.87 63.81 219.33 62.49 220.46 62.01C221.58 61.52 222.61 61.1 222.75 61.06ZM157 62.12C157.28 62.06 158.96 62.91 160.75 64C162.54 65.1 164.62 67.24 165.38 68.75C166.14 70.26 167.07 72.85 167.45 74.5C168.01 76.96 167.52 78.32 164.77 82C161.92 85.83 160.82 86.55 157.46 86.82C154.94 87.02 151.95 86.38 149.25 85.07C146.91 83.93 144.95 82.66 144.88 82.25C144.81 81.84 144.65 79.25 144.52 76.5C144.39 73.75 144.56 70.46 144.89 69.19C145.32 67.58 147.16 66.18 151 64.55C154.03 63.27 156.72 62.17 157 62.12ZM150.25 74.88C150.05 78.2 150.44 79.29 152.25 80.51C153.49 81.34 155.18 82.02 156 82.03C156.82 82.04 158.5 81.03 159.73 79.78C160.95 78.52 161.97 76.71 161.98 75.75C161.99 74.79 161.44 72.86 160.75 71.48C160.06 70.09 159.03 68.83 158.45 68.67C157.88 68.52 155.86 68.92 153.95 69.57C150.84 70.64 150.48 71.15 150.25 74.88ZM248.58 62C249.36 62 251.63 62.79 253.61 63.75C255.64 64.73 257.83 66.82 258.6 68.5C259.36 70.15 261.11 72.74 262.49 74.25C263.87 75.76 265 77.67 265 78.5C265 79.33 264.32 80.22 263.5 80.5C262.68 80.78 261.1 80.55 260 80C258.9 79.45 257.8 78.44 257.56 77.75C257.26 76.89 256.62 77.13 255.51 78.5C254.43 79.85 252.53 80.56 249.7 80.69C247.39 80.8 245.05 80.58 244.5 80.19C243.95 79.81 242.49 77.59 241.25 75.25C239.7 72.32 239.27 70.45 239.87 69.25C240.35 68.29 242.18 66.26 243.95 64.75C245.72 63.24 247.8 62 248.58 62ZM247.08 74L249.03 76.5C252.17 72.94 252.79 71.17 252.5 70C252.22 68.9 251.17 68 250.15 68C249.13 68 247.58 68.79 246.71 69.75C245.26 71.35 245.29 71.71 247.08 74ZM187.83 64.19C188.71 64.36 189.83 65.85 190.32 67.5C190.82 69.15 190.89 73.2 190.48 76.5C189.91 81.17 189.13 83.11 186.95 85.25C185.36 86.82 183.04 88 181.58 88C180.05 88 177.78 86.78 176 85C174.35 83.35 172.6 80.31 172.1 78.25C171.61 76.19 170.93 73.04 170.6 71.25C170.18 68.95 170.44 67.71 171.5 67C172.4 66.4 173.5 66.36 174.25 66.89C174.94 67.38 175.77 69.52 176.1 71.64C176.43 73.76 177.34 76.85 178.11 78.5C178.97 80.33 180.39 81.6 181.76 81.75C183.34 81.93 184.19 81.34 184.66 79.75C185.02 78.51 185.17 74.86 185 71.64C184.82 68.41 185.02 65.35 185.45 64.83C185.88 64.31 186.95 64.03 187.83 64.19Z" />
			<path id="Path 3" class="shp2" d="M93.92 98.46C93.69 98.71 87.42 101.41 80 104.46C72.58 107.52 66.14 110.49 65.69 111.07C65.15 111.77 65.82 111.94 67.69 111.58C69.24 111.28 72.08 110.57 74 110.02C75.92 109.46 80.09 109 83.25 109C86.41 109 89.67 108.78 90.5 108.5C91.33 108.22 92 107.55 92 107C92 106.45 93.13 104.65 94.5 103C95.88 101.35 96.78 99.55 96.5 99C96.22 98.45 95.63 98 95.17 98C94.71 98 94.15 98.21 93.92 98.46ZM75 113.98C73.63 114.37 71.49 114.99 70.25 115.35C69.01 115.71 68 116.67 68 117.5C68 118.33 68.56 119.01 69.25 119.02C69.94 119.03 74.79 119.31 80.04 119.64C87.92 120.14 89.96 119.96 91.79 118.62C93.89 117.08 93.91 116.92 92.25 115.3C91.01 114.09 88.6 113.54 84 113.43C80.42 113.34 76.38 113.58 75 113.98Z" />
		</g>
	</g>
</svg>